<svg width="64" height="267" viewBox="0 0 64 267" fill="none" xmlns="http://www.w3.org/2000/svg">
<path d="M24.8643 160.836C27.2438 162.214 29.905 162.914 32.7759 162.914C36.7676 162.914 40.2072 161.594 42.9981 158.989C45.7807 156.391 47.1913 153.021 47.1913 148.976C47.1913 144.931 45.8773 141.766 43.2851 139.224C40.6764 136.666 37.466 135.369 33.7504 135.369C31.7573 135.369 29.7725 135.824 27.8567 136.721C26.0872 137.551 24.3288 138.776 22.6283 140.371L9.99894 137.811L20.6683 93.4566C20.7649 93.0516 20.4833 92.6516 20.0361 92.5641C19.5889 92.4766 19.1473 92.7316 19.0507 93.1366L8.03067 138.949L23.1887 142.019L23.5116 141.706C25.1845 140.086 26.9015 138.856 28.6186 138.054C30.2997 137.266 32.0278 136.869 33.7531 136.869C37.0354 136.869 39.7545 137.971 42.0705 140.241C44.37 142.496 45.5378 145.436 45.5378 148.976C45.5378 152.516 44.2845 155.636 41.8111 157.946C39.31 160.281 36.3535 161.416 32.7787 161.416C30.2307 161.416 27.8677 160.796 25.7614 159.576C23.6469 158.351 21.9105 156.511 20.6048 154.111L20.3784 153.694H0.914062L1.14321 154.609C2.88509 161.591 6.61181 167.174 12.2212 171.199C17.8305 175.224 24.6241 177.266 32.417 177.266C32.8173 177.266 33.2148 177.259 33.6124 177.246V265.839C33.6124 266.254 33.9823 266.589 34.4405 266.589C34.8988 266.589 35.2687 266.254 35.2687 265.839V176.464C35.2687 176.449 35.2659 176.436 35.2631 176.421C35.2604 176.371 35.2521 176.321 35.2383 176.274C35.1665 176.036 34.9733 175.846 34.7193 175.764C34.7138 175.764 34.711 175.764 34.7055 175.761C34.6613 175.749 34.6172 175.736 34.573 175.731C34.5537 175.729 34.5344 175.729 34.5123 175.726C34.4874 175.726 34.4654 175.719 34.4405 175.719C34.4322 175.719 34.4267 175.719 34.4184 175.719C34.4101 175.719 34.3991 175.719 34.3908 175.719C33.7448 175.751 33.0796 175.769 32.417 175.769C25.0078 175.769 18.5593 173.836 13.2508 170.026C8.19082 166.394 4.74567 161.409 3.00102 155.196H19.357C20.7704 157.644 22.6255 159.544 24.8725 160.844L24.8643 160.836Z" fill="url(#paint0_linear_4340_38306)"/>
<path d="M34.7255 120.805C33.798 120.805 32.8153 120.872 31.8022 121.005C31.2225 121.082 30.6344 121.18 30.0382 121.302L33.2542 108.342H62.6674V92.5498H35.2611V0.749999C35.2611 0.334999 34.8912 0 34.4329 0C33.9747 0 33.6048 0.334999 33.6048 0.749999V93.3023C33.6048 93.7173 33.9747 94.0523 34.4329 94.0523C34.4412 94.0523 34.4467 94.0523 34.455 94.0523H61.0111V106.845H31.9291L27.8242 123.387L29.1576 123.05C30.1348 122.802 31.1037 122.615 32.0395 122.49C32.9726 122.367 33.8753 122.305 34.7227 122.305C42.5764 122.305 49.1934 124.762 54.3887 129.61C59.5895 134.462 62.2285 140.777 62.2285 148.372C62.2285 155.967 59.3051 162.592 53.5439 167.847C50.9297 170.232 48.0229 172.1 44.9008 173.4C44.4839 173.572 44.3045 174.017 44.495 174.395C44.6358 174.67 44.9339 174.832 45.2486 174.832C45.3645 174.832 45.4832 174.81 45.5937 174.762C48.8952 173.387 51.9649 171.415 54.7199 168.905C60.8041 163.357 63.8876 156.45 63.8876 148.372C63.8876 140.295 61.0939 133.707 55.5812 128.565C50.0601 123.415 43.0457 120.805 34.7283 120.805H34.7255Z" fill="url(#paint1_linear_4340_38306)"/>
<defs>
<linearGradient id="paint0_linear_4340_38306" x1="0.914062" y1="92.5469" x2="48.8454" y2="93.8755" gradientUnits="userSpaceOnUse">
<stop offset="0.00621719" stop-color="#B9C1EC"/>
<stop offset="1" stop-color="#A3B1FF"/>
</linearGradient>
<linearGradient id="paint1_linear_4340_38306" x1="27.8242" y1="0" x2="65.188" y2="0.803437" gradientUnits="userSpaceOnUse">
<stop offset="0.00621719" stop-color="#B9C1EC"/>
<stop offset="1" stop-color="#A3B1FF"/>
</linearGradient>
</defs>
</svg>
