<svg width="40" height="40" viewBox="0 0 40 40" fill="none" xmlns="http://www.w3.org/2000/svg">
<g id="Group 108653">
<path id="Vector" d="M13.46 32.2107C13.33 32.2107 13.21 32.1607 13.12 32.0707L8.20502 27.1558C8.11252 27.0633 8.0625 26.9433 8.0625 26.8133C8.0625 26.6858 8.11252 26.5633 8.20502 26.4733L10.2725 24.4008V24.3233C10.26 23.6208 10.21 22.8858 10.1575 22.1083V22.0833C9.9325 18.7608 9.6775 14.9958 12.3775 12.2983C14.43 10.2458 17.16 9.11328 20.065 9.11328C22.97 9.11328 25.6975 10.2433 27.7525 12.2958C29.805 14.3483 30.935 17.0783 30.935 19.9833C30.935 22.8883 29.8025 25.6158 27.75 27.6683C25.59 29.8308 22.6175 30.1083 20.2675 30.1083C19.3575 30.1083 18.445 30.0607 17.7125 30.0232C17.0825 29.9907 16.5025 29.9608 15.9775 29.9533H15.9L13.8075 32.0682C13.725 32.1507 13.6175 32.1957 13.465 32.2107H13.46ZM20.0625 10.0758C17.4175 10.0758 14.93 11.1058 13.0575 12.9783C10.67 15.3658 10.8975 18.7358 11.1175 21.9958C11.175 22.8133 11.2375 23.7383 11.2375 24.5983C11.2375 24.7258 11.1875 24.8483 11.0975 24.9383L9.22751 26.8108L13.46 31.0407L15.355 29.1258C15.445 29.0333 15.5675 28.9833 15.7 28.9833C16.345 28.9833 17.03 29.0183 17.7575 29.0557H17.7775C18.5875 29.0983 19.425 29.1408 20.2675 29.1408C22.43 29.1408 25.155 28.8958 27.0675 26.9833C28.94 25.1108 29.97 22.6233 29.97 19.9783C29.97 17.3333 28.94 14.8433 27.07 12.9733C25.1975 11.1033 22.71 10.0733 20.065 10.0733L20.0625 10.0758Z" fill="url(#paint0_linear_4340_38323)"/>
<path id="Vector_2" d="M7.96359 33.7352C7.83359 33.7352 7.7136 33.6852 7.6236 33.5927L6.45111 32.4202C6.36111 32.3302 6.30859 32.2077 6.30859 32.0777C6.30859 31.9477 6.35861 31.8277 6.45111 31.7377C6.54111 31.6477 6.66361 31.5977 6.79111 31.5977C6.91861 31.5977 7.04111 31.6477 7.13361 31.7377L8.30609 32.9102C8.49359 33.0977 8.49359 33.4052 8.30609 33.5927C8.21609 33.6852 8.09359 33.7352 7.96359 33.7352Z" fill="url(#paint1_linear_4340_38323)"/>
<path id="Vector_3" d="M11.2216 33.7328C11.0941 33.7328 10.9716 33.6828 10.8791 33.5903L6.68155 29.3928C6.59155 29.3028 6.53906 29.1803 6.53906 29.0503C6.53906 28.9203 6.58905 28.8003 6.68155 28.7103C6.77155 28.6203 6.89405 28.5703 7.02155 28.5703C7.14905 28.5703 7.27158 28.6203 7.36408 28.7103L11.5616 32.9078C11.6541 32.9978 11.7041 33.1203 11.7041 33.2503C11.7041 33.3803 11.6541 33.5003 11.5616 33.5903C11.4691 33.6828 11.3491 33.7328 11.2216 33.7328Z" fill="url(#paint2_linear_4340_38323)"/>
<path id="Vector_4" d="M16.9818 23.6417C16.8518 23.6392 16.7318 23.5842 16.6443 23.4917C16.5543 23.3992 16.5093 23.2767 16.5118 23.1492L16.6343 18.5442C16.6418 18.2842 16.8518 18.0742 17.1068 18.0742C17.2543 18.0792 17.3743 18.1267 17.4668 18.2242C17.5543 18.3167 17.6018 18.4392 17.5993 18.5692L17.4893 22.6917L21.6093 22.8017C21.8743 22.8092 22.0868 23.0342 22.0793 23.2992C22.0718 23.5567 21.8568 23.7667 21.5993 23.7667L16.9818 23.6417Z" fill="url(#paint3_linear_4340_38323)"/>
<path id="Vector_5" d="M9.23078 9.25062C9.10328 9.25062 8.98078 9.20062 8.88828 9.11062L6.23828 6.46312C6.05078 6.27562 6.05078 5.96812 6.23828 5.78062C6.32828 5.69062 6.45078 5.64062 6.57828 5.64062C6.70578 5.64062 6.82828 5.69062 6.92078 5.78062L9.57077 8.42561C9.75827 8.61311 9.75827 8.92062 9.57077 9.10812C9.47827 9.19812 9.35827 9.24812 9.22827 9.24812L9.23078 9.25062Z" fill="url(#paint4_linear_4340_38323)"/>
<path id="Vector_6" d="M33.8089 33.8273C33.6789 33.8273 33.5589 33.7773 33.4664 33.6873L30.8164 31.0398C30.6289 30.8523 30.6289 30.5473 30.8164 30.3573C30.9064 30.2648 31.0289 30.2148 31.1564 30.2148C31.2839 30.2148 31.4064 30.2648 31.4964 30.3548L34.1464 33.0023C34.3339 33.1898 34.3364 33.4973 34.1464 33.6848C34.0539 33.7748 33.9339 33.8248 33.8039 33.8248L33.8089 33.8273Z" fill="url(#paint5_linear_4340_38323)"/>
<path id="Vector_7" d="M20.1974 4.70998C19.9324 4.70998 19.7174 4.49249 19.7149 4.22749V0.482497C19.7124 0.217498 19.9274 0 20.1949 0C20.4624 0 20.6774 0.214995 20.6774 0.479995L20.6824 4.22749C20.6824 4.49249 20.4649 4.70998 20.1999 4.70998H20.1974Z" fill="url(#paint6_linear_4340_38323)"/>
<path id="Vector_8" d="M20.1974 39.4678C19.9324 39.4678 19.7149 39.2528 19.7149 38.9878V35.2403C19.7124 34.9753 19.9274 34.7578 20.1949 34.7578C20.4599 34.7578 20.6774 34.9753 20.6774 35.2403V38.9878C20.6799 39.2528 20.4624 39.4703 20.1974 39.4703V39.4678Z" fill="url(#paint7_linear_4340_38323)"/>
<path id="Vector_9" d="M35.7013 20.22C35.4363 20.22 35.2188 20.0025 35.2188 19.7375C35.2188 19.4725 35.4363 19.255 35.7013 19.255L39.4488 19.25C39.7138 19.25 39.9312 19.4675 39.9312 19.7325C39.9312 19.8625 39.8838 19.9825 39.7913 20.0725C39.7013 20.165 39.5788 20.215 39.4488 20.215L35.7013 20.22Z" fill="url(#paint8_linear_4340_38323)"/>
<path id="Vector_10" d="M0.939545 20.22C0.674545 20.22 0.457031 20.0025 0.457031 19.7375C0.457031 19.4725 0.672042 19.255 0.937043 19.255L4.68454 19.25C4.94954 19.25 5.16706 19.465 5.16706 19.73C5.16706 19.86 5.11704 19.98 5.02704 20.0725C4.93704 20.1625 4.81454 20.215 4.68454 20.215L0.937043 20.22H0.939545Z" fill="url(#paint9_linear_4340_38323)"/>
<path id="Vector_11" d="M31.1589 9.25561C31.0289 9.25561 30.9089 9.20561 30.8164 9.11561C30.6289 8.92811 30.6289 8.62062 30.8164 8.43312L33.4639 5.78313C33.5539 5.69063 33.6764 5.64062 33.8039 5.64062C33.9314 5.64062 34.0539 5.69063 34.1464 5.78313C34.2389 5.87313 34.2889 5.99562 34.2889 6.12312C34.2889 6.25312 34.2389 6.37312 34.1489 6.46562L31.5014 9.11561C31.4114 9.20811 31.2889 9.25811 31.1589 9.25811V9.25561Z" fill="url(#paint10_linear_4340_38323)"/>
</g>
<defs>
<linearGradient id="paint0_linear_4340_38323" x1="8.0625" y1="9.11328" x2="31.5208" y2="11.5349" gradientUnits="userSpaceOnUse">
<stop offset="0.00621719" stop-color="#B9C1EC"/>
<stop offset="1" stop-color="#A3B1FF"/>
</linearGradient>
<linearGradient id="paint1_linear_4340_38323" x1="6.30859" y1="31.5977" x2="8.501" y2="31.8263" gradientUnits="userSpaceOnUse">
<stop offset="0.00621719" stop-color="#B9C1EC"/>
<stop offset="1" stop-color="#A3B1FF"/>
</linearGradient>
<linearGradient id="paint2_linear_4340_38323" x1="6.53906" y1="28.5703" x2="11.8352" y2="29.1227" gradientUnits="userSpaceOnUse">
<stop offset="0.00621719" stop-color="#B9C1EC"/>
<stop offset="1" stop-color="#A3B1FF"/>
</linearGradient>
<linearGradient id="paint3_linear_4340_38323" x1="16.5117" y1="18.0742" x2="22.2236" y2="18.6566" gradientUnits="userSpaceOnUse">
<stop offset="0.00621719" stop-color="#B9C1EC"/>
<stop offset="1" stop-color="#A3B1FF"/>
</linearGradient>
<linearGradient id="paint4_linear_4340_38323" x1="6.09766" y1="5.64062" x2="9.80309" y2="6.0273" gradientUnits="userSpaceOnUse">
<stop offset="0.00621719" stop-color="#B9C1EC"/>
<stop offset="1" stop-color="#A3B1FF"/>
</linearGradient>
<linearGradient id="paint5_linear_4340_38323" x1="30.6758" y1="30.2148" x2="34.3797" y2="30.6009" gradientUnits="userSpaceOnUse">
<stop offset="0.00621719" stop-color="#B9C1EC"/>
<stop offset="1" stop-color="#A3B1FF"/>
</linearGradient>
<linearGradient id="paint6_linear_4340_38323" x1="19.7148" y1="0" x2="20.7173" y2="0.0214657" gradientUnits="userSpaceOnUse">
<stop offset="0.00621719" stop-color="#B9C1EC"/>
<stop offset="1" stop-color="#A3B1FF"/>
</linearGradient>
<linearGradient id="paint7_linear_4340_38323" x1="19.7148" y1="34.7578" x2="20.7121" y2="34.779" gradientUnits="userSpaceOnUse">
<stop offset="0.00621719" stop-color="#B9C1EC"/>
<stop offset="1" stop-color="#A3B1FF"/>
</linearGradient>
<linearGradient id="paint8_linear_4340_38323" x1="35.2188" y1="19.25" x2="39.1063" y2="21.2189" gradientUnits="userSpaceOnUse">
<stop offset="0.00621719" stop-color="#B9C1EC"/>
<stop offset="1" stop-color="#A3B1FF"/>
</linearGradient>
<linearGradient id="paint9_linear_4340_38323" x1="0.457031" y1="19.25" x2="4.34339" y2="21.2172" gradientUnits="userSpaceOnUse">
<stop offset="0.00621719" stop-color="#B9C1EC"/>
<stop offset="1" stop-color="#A3B1FF"/>
</linearGradient>
<linearGradient id="paint10_linear_4340_38323" x1="30.6758" y1="5.64062" x2="34.3808" y2="6.02639" gradientUnits="userSpaceOnUse">
<stop offset="0.00621719" stop-color="#B9C1EC"/>
<stop offset="1" stop-color="#A3B1FF"/>
</linearGradient>
</defs>
</svg>
