<svg width="20" height="21" viewBox="0 0 20 21" fill="none" xmlns="http://www.w3.org/2000/svg">
<g id="uil:calender">
<path id="Vector" d="M15.8327 3.83366H14.166V3.00033C14.166 2.77931 14.0782 2.56735 13.9219 2.41107C13.7657 2.25479 13.5537 2.16699 13.3327 2.16699C13.1117 2.16699 12.8997 2.25479 12.7434 2.41107C12.5871 2.56735 12.4993 2.77931 12.4993 3.00033V3.83366H7.49935V3.00033C7.49935 2.77931 7.41155 2.56735 7.25527 2.41107C7.09899 2.25479 6.88703 2.16699 6.66602 2.16699C6.445 2.16699 6.23304 2.25479 6.07676 2.41107C5.92048 2.56735 5.83268 2.77931 5.83268 3.00033V3.83366H4.16602C3.50297 3.83366 2.86709 4.09705 2.39825 4.56589C1.92941 5.03473 1.66602 5.67062 1.66602 6.33366V16.3337C1.66602 16.9967 1.92941 17.6326 2.39825 18.1014C2.86709 18.5703 3.50297 18.8337 4.16602 18.8337H15.8327C16.4957 18.8337 17.1316 18.5703 17.6004 18.1014C18.0693 17.6326 18.3327 16.9967 18.3327 16.3337V6.33366C18.3327 5.67062 18.0693 5.03473 17.6004 4.56589C17.1316 4.09705 16.4957 3.83366 15.8327 3.83366ZM16.666 16.3337C16.666 16.5547 16.5782 16.7666 16.4219 16.9229C16.2657 17.0792 16.0537 17.167 15.8327 17.167H4.16602C3.945 17.167 3.73304 17.0792 3.57676 16.9229C3.42048 16.7666 3.33268 16.5547 3.33268 16.3337V10.5003H16.666V16.3337ZM16.666 8.83366H3.33268V6.33366C3.33268 6.11264 3.42048 5.90068 3.57676 5.7444C3.73304 5.58812 3.945 5.50033 4.16602 5.50033H5.83268V6.33366C5.83268 6.55467 5.92048 6.76663 6.07676 6.92291C6.23304 7.07919 6.445 7.16699 6.66602 7.16699C6.88703 7.16699 7.09899 7.07919 7.25527 6.92291C7.41155 6.76663 7.49935 6.55467 7.49935 6.33366V5.50033H12.4993V6.33366C12.4993 6.55467 12.5871 6.76663 12.7434 6.92291C12.8997 7.07919 13.1117 7.16699 13.3327 7.16699C13.5537 7.16699 13.7657 7.07919 13.9219 6.92291C14.0782 6.76663 14.166 6.55467 14.166 6.33366V5.50033H15.8327C16.0537 5.50033 16.2657 5.58812 16.4219 5.7444C16.5782 5.90068 16.666 6.11264 16.666 6.33366V8.83366Z" fill="#595959"/>
</g>
</svg>
