<svg width="21" height="20" viewBox="0 0 21 20" fill="none" xmlns="http://www.w3.org/2000/svg">
<g id="Chats">
<path id="Vector" d="M6.09375 11.25L3 13.75V3.75C3 3.58424 3.06585 3.42527 3.18306 3.30806C3.30027 3.19085 3.45924 3.125 3.625 3.125H13.625C13.7908 3.125 13.9497 3.19085 14.0669 3.30806C14.1842 3.42527 14.25 3.58424 14.25 3.75V10.625C14.25 10.7908 14.1842 10.9497 14.0669 11.0669C13.9497 11.1842 13.7908 11.25 13.625 11.25H6.09375Z" stroke="#969AFB" strokeLinecap="round" strokeLinejoin="round"/>
<path id="Vector_2" d="M6.75 11.25V14.375C6.75 14.5408 6.81585 14.6997 6.93306 14.8169C7.05027 14.9342 7.20924 15 7.375 15H14.9062L18 17.5V7.5C18 7.33424 17.9342 7.17527 17.8169 7.05806C17.6997 6.94085 17.5408 6.875 17.375 6.875H14.25" stroke="#969AFB" strokeLinecap="round" strokeLinejoin="round"/>
</g>
</svg>
