<svg width="32" height="32" viewBox="0 0 32 32" fill="none" xmlns="http://www.w3.org/2000/svg">
<g id="ClockCounterClockwise">
<path id="Vector" d="M16 10V16" stroke="url(#paint0_linear_1993_8774)" strokeWidth="1.5" strokeLinecap="round" strokeLinejoin="round"/>
<path id="Vector_2" d="M21.2 19L16 16" stroke="url(#paint1_linear_1993_8774)" strokeWidth="1.5" strokeLinecap="round" strokeLinejoin="round"/>
<path id="Vector_3" d="M8.97656 12.4609H3.97656V7.46094" stroke="url(#paint2_linear_1993_8774)" strokeWidth="1.5" strokeLinecap="round" strokeLinejoin="round"/>
<path id="Vector_4" d="M8.22656 23.775C9.76458 25.3143 11.7246 26.3628 13.8586 26.788C15.9927 27.2132 18.2048 26.9958 20.2154 26.1635C22.2259 25.3312 23.9444 23.9213 25.1535 22.1122C26.3625 20.3031 27.0079 18.176 27.0079 16C27.0079 13.824 26.3625 11.6969 25.1535 9.8878C23.9444 8.07866 22.2259 6.66877 20.2154 5.83647C18.2048 5.00417 15.9927 4.78686 13.8586 5.21202C11.7246 5.63719 9.76458 6.68573 8.22656 8.22501L3.97656 12.4625" stroke="url(#paint3_linear_1993_8774)" strokeWidth="1.5" strokeLinecap="round" strokeLinejoin="round"/>
</g>
<defs>
<linearGradient id="paint0_linear_1993_8774" x1="16" y1="10" x2="17.0362" y2="10.018" gradientUnits="userSpaceOnUse">
<stop offset="0.00621719" stop-color="#B9C1EC"/>
<stop offset="1" stop-color="#A3B1FF"/>
</linearGradient>
<linearGradient id="paint1_linear_1993_8774" x1="16" y1="16" x2="21.2196" y2="16.9431" gradientUnits="userSpaceOnUse">
<stop offset="0.00621719" stop-color="#B9C1EC"/>
<stop offset="1" stop-color="#A3B1FF"/>
</linearGradient>
<linearGradient id="paint2_linear_1993_8774" x1="3.97656" y1="7.46094" x2="9.10354" y2="7.9954" gradientUnits="userSpaceOnUse">
<stop offset="0.00621719" stop-color="#B9C1EC"/>
<stop offset="1" stop-color="#A3B1FF"/>
</linearGradient>
<linearGradient id="paint3_linear_1993_8774" x1="3.97656" y1="5" x2="27.5685" y2="7.57464" gradientUnits="userSpaceOnUse">
<stop offset="0.00621719" stop-color="#B9C1EC"/>
<stop offset="1" stop-color="#A3B1FF"/>
</linearGradient>
</defs>
</svg>
