<svg width="82" height="81" viewBox="0 0 82 81" fill="none" xmlns="http://www.w3.org/2000/svg">
<path d="M81.5 80.9935C65.7094 80.9935 47.0097 74.5947 37.2548 60.7502C29.3465 49.5367 19.7832 44.7399 0.5 44.7399V36.6855C15.2455 36.6855 32.2555 38.377 43.4387 54.244C52.2616 66.7641 67.2945 72.9391 81.5 72.9391V80.9935Z" fill="url(#paint0_radial_3673_52942)"/>
<path d="M81.5 44.3079C65.7094 44.3079 47.0097 37.9092 37.2548 24.0646C29.3465 12.8512 19.7832 8.05436 0.5 8.05436V0C15.2455 0 32.2555 1.69141 43.4387 17.5585C52.2616 30.0785 67.2945 36.2536 81.5 36.2536V44.3079Z" fill="url(#paint1_radial_3673_52942)"/>
<path d="M0.5 44.3079C16.2906 44.3079 34.9903 37.9092 44.7452 24.0646C52.6535 12.8512 62.2168 8.05436 81.5 8.05436V0C66.7545 0 49.7445 1.69141 38.5613 17.5585C29.7384 30.0785 14.7055 36.2536 0.5 36.2536V44.3079Z" fill="url(#paint2_radial_3673_52942)"/>
<path d="M0.5 80.9935C16.2906 80.9935 34.9903 74.5947 44.7452 60.7502C52.6535 49.5367 62.2168 44.7399 81.5 44.7399V36.6855C66.7545 36.6855 49.7445 38.377 38.5613 54.244C29.7384 66.7641 14.7055 72.9391 0.5 72.9391V80.9935Z" fill="url(#paint3_radial_3673_52942)"/>
<defs>
<radialGradient id="paint0_radial_3673_52942" cx="0" cy="0" r="1" gradientUnits="userSpaceOnUse" gradientTransform="translate(40.9993 58.8317) scale(32.4444 33.337)">
<stop stop-color="#2B15D1"/>
<stop offset="1" stop-color="#6762D9"/>
</radialGradient>
<radialGradient id="paint1_radial_3673_52942" cx="0" cy="0" r="1" gradientUnits="userSpaceOnUse" gradientTransform="translate(11.9797 40.322) scale(83.1751 85.4633)">
<stop stop-color="#2B15D1"/>
<stop offset="1" stop-color="#6762D9"/>
</radialGradient>
<radialGradient id="paint2_radial_3673_52942" cx="0" cy="0" r="1" gradientUnits="userSpaceOnUse" gradientTransform="translate(41.0035 22.1292) scale(45.4296 75.7747)">
<stop stop-color="#2B15D1"/>
<stop offset="1" stop-color="#6762D9"/>
</radialGradient>
<radialGradient id="paint3_radial_3673_52942" cx="0" cy="0" r="1" gradientUnits="userSpaceOnUse" gradientTransform="translate(40.9993 58.8317) scale(32.4444 33.337)">
<stop stop-color="#2B15D1"/>
<stop offset="1" stop-color="#6762D9"/>
</radialGradient>
</defs>
</svg>
