<svg width="16" height="17" viewBox="0 0 16 17" fill="none" xmlns="http://www.w3.org/2000/svg">
<path d="M5.14635 3.94448L3.44931 5.64152L4.15641 6.34862L5.85345 4.65158L5.14635 3.94448Z" fill="white" fill-opacity="0.85"/>
<path d="M2.45 10.35L1.3 9.2C1.1 9 1 8.75 1 8.5C1 8.25 1.1 8 1.3 7.8L2.45 6.65L3.15 7.35L2 8.5L3.15 9.65L2.45 10.35Z" fill="white" fill-opacity="0.85"/>
<path d="M4.15148 10.6465L3.44438 11.3535L5.14142 13.0506L5.84852 12.3435L4.15148 10.6465Z" fill="white" fill-opacity="0.85"/>
<path d="M8 15.5C7.75 15.5 7.5 15.4 7.3 15.2L6.15 14.05L6.85 13.35L8 14.5L9.15 13.35L9.85 14.05L8.7 15.2C8.5 15.4 8.25 15.5 8 15.5Z" fill="white" fill-opacity="0.85"/>
<path d="M11.8434 10.6514L10.1463 12.3484L10.8534 13.0555L12.5505 11.3585L11.8434 10.6514Z" fill="white" fill-opacity="0.85"/>
<path d="M13.55 10.35L12.85 9.65L14 8.5L12.85 7.35L13.55 6.65L14.7 7.8C14.9 8 15 8.25 15 8.5C15 8.75 14.9 9 14.7 9.2L13.55 10.35Z" fill="white" fill-opacity="0.85"/>
<path d="M10.8584 3.94941L10.1513 4.65651L11.8483 6.35355L12.5554 5.64645L10.8584 3.94941Z" fill="white" fill-opacity="0.85"/>
<path d="M8 1.5C7.75 1.5 7.5 1.6 7.3 1.8L6.15 2.95L6.85 3.65L8 2.5L9.15 3.65L9.85 2.95L8.7 1.8C8.5 1.6 8.25 1.5 8 1.5Z" fill="white" fill-opacity="0.85"/>
</svg>
