<svg width="20" height="21" viewBox="0 0 20 21" fill="none" xmlns="http://www.w3.org/2000/svg">
<g id="Experience">
<path id="Vector" d="M16.6665 6.33301H3.33317C2.4127 6.33301 1.6665 7.0792 1.6665 7.99967V16.333C1.6665 17.2535 2.4127 17.9997 3.33317 17.9997H16.6665C17.587 17.9997 18.3332 17.2535 18.3332 16.333V7.99967C18.3332 7.0792 17.587 6.33301 16.6665 6.33301Z" stroke="black" strokeWidth="1.66667" strokeLinecap="round" strokeLinejoin="round"/>
<path id="Vector_2" d="M13.3332 18V4.66667C13.3332 4.22464 13.1576 3.80072 12.845 3.48816C12.5325 3.17559 12.1085 3 11.6665 3H8.33317C7.89114 3 7.46722 3.17559 7.15466 3.48816C6.8421 3.80072 6.6665 4.22464 6.6665 4.66667V18" stroke="black" strokeWidth="1.66667" strokeLinecap="round" strokeLinejoin="round"/>
</g>
</svg>
