<svg width="23" height="22" viewBox="0 0 23 22" fill="none" xmlns="http://www.w3.org/2000/svg">
<g id="Facebook svg" clip-path="url(#clip0_5225_35677)">
<g id="g10">
<g id="g12">
<path id="path14" d="M22.5 11.0008C22.5 4.92568 17.5751 0.000818253 11.5 0.000818253C5.42486 0.000818253 0.5 4.92568 0.5 11.0008C0.5 16.4912 4.52254 21.042 9.78125 21.8672V14.1805H6.98828V11.0008H9.78125V8.57738C9.78125 5.82051 11.4235 4.29769 13.9361 4.29769C15.1396 4.29769 16.3984 4.51254 16.3984 4.51254V7.21957H15.0114C13.6449 7.21957 13.2188 8.06749 13.2188 8.93739V11.0008H16.2695L15.7818 14.1805H13.2188V21.8672C18.4775 21.042 22.5 16.4912 22.5 11.0008Z" fill="white"/>
<path id="path16" d="M15.7818 14.1797L16.2695 11H13.2188V8.93658C13.2188 8.06667 13.6449 7.21875 15.0114 7.21875H16.3984V4.51172C16.3984 4.51172 15.1396 4.29688 13.9361 4.29688C11.4235 4.29688 9.78125 5.81969 9.78125 8.57656V11H6.98828V14.1797H9.78125V21.8664C10.3413 21.9542 10.9153 22 11.5 22C12.0847 22 12.6587 21.9542 13.2188 21.8664V14.1797H15.7818Z" fill="#262626"/>
</g>
</g>
</g>
<defs>
<clipPath id="clip0_5225_35677">
<rect width="22" height="22" fill="white" transform="translate(0.5)"/>
</clipPath>
</defs>
</svg>
