<svg width="22" height="22" viewBox="0 0 22 22" fill="none" xmlns="http://www.w3.org/2000/svg">
<g clip-path="url(#clip0_2109_6486)">
<path d="M22 11.0008C22 4.92568 17.0751 0.000818253 11 0.000818253C4.92486 0.000818253 0 4.92568 0 11.0008C0 16.4912 4.02254 21.042 9.28125 21.8672V14.1805H6.48828V11.0008H9.28125V8.57738C9.28125 5.82051 10.9235 4.29769 13.4361 4.29769C14.6396 4.29769 15.8984 4.51254 15.8984 4.51254V7.21957H14.5114C13.1449 7.21957 12.7188 8.06749 12.7188 8.93739V11.0008H15.7695L15.2818 14.1805H12.7188V21.8672C17.9775 21.042 22 16.4912 22 11.0008Z" fill="white"/>
<path d="M15.2818 14.1797L15.7695 11H12.7188V8.93658C12.7188 8.06667 13.1449 7.21875 14.5114 7.21875H15.8984V4.51172C15.8984 4.51172 14.6396 4.29688 13.4361 4.29688C10.9235 4.29688 9.28125 5.81969 9.28125 8.57656V11H6.48828V14.1797H9.28125V21.8664C9.84128 21.9542 10.4153 22 11 22C11.5847 22 12.1587 21.9542 12.7188 21.8664V14.1797H15.2818Z" fill="#262626"/>
</g>
<defs>
<clipPath id="clip0_2109_6486">
<rect width="22" height="22" fill="white"/>
</clipPath>
</defs>
</svg>
