<svg width="164" height="127" viewBox="0 0 164 127" fill="none" xmlns="http://www.w3.org/2000/svg"><path d="M114.511 7.742 55.494 66.76A4.226 4.226 0 0 1 52.496 68a4.226 4.226 0 0 1-2.998-1.24 4.242 4.242 0 0 1 0-5.996L108.516 1.74a4.242 4.242 0 0 1 5.995 0 4.242 4.242 0 0 1 0 5.996v.006Z" fill="#3CBDFF"/><path d="M93.193 1.74a4.242 4.242 0 0 0-5.995 0L71.962 16.976V4.738c0-2.337-1.9-4.238-4.243-4.238a4.239 4.239 0 0 0-4.238 4.238v32.71L93.192 7.743a4.242 4.242 0 0 0 0-5.996V1.74Z" fill="#00FFA7"/><path d="m48.261 52.73 8.506-8.505-.023-11.968V4.738A4.243 4.243 0 0 0 52.505.5h-.011a4.244 4.244 0 0 0-4.244 4.238v34.767c0 .086.006.172.011.252V52.73Z" fill="#FFD119"/><path d="M108.515 22.746 70.498 60.763a4.242 4.242 0 0 0 0 5.995A4.226 4.226 0 0 0 73.496 68c1.085 0 2.17-.413 2.998-1.24l38.016-38.017a4.242 4.242 0 0 0 0-5.996 4.242 4.242 0 0 0-5.995 0Z" fill="#3A7CED"/><path d="M108.514 43.541 91.291 60.764a4.242 4.242 0 0 0 0 5.995 4.226 4.226 0 0 0 2.998 1.24c1.085 0 2.17-.413 2.998-1.24l17.222-17.222a4.242 4.242 0 0 0 0-5.996 4.242 4.242 0 0 0-5.995 0Z" fill="#861FAC"/><path d="M24.08 94.801c-.29-.318-.432-.71-.432-1.18 0-.514.154-.915.466-1.196A1.57 1.57 0 0 1 25.21 92c.423 0 .78.143 1.077.425.3.281.446.682.446 1.196 0 .47-.15.862-.446 1.18-.3.319-.67.474-1.112.474-.442 0-.807-.16-1.096-.474Zm.415 23.5a1.056 1.056 0 0 1-.281-.755v-17.159c0-.326.092-.588.28-.776a.971.971 0 0 1 .716-.281c.308 0 .554.094.73.281.178.188.266.445.266.776v17.159c0 .306-.088.559-.265.755-.177.2-.42.298-.731.298a.94.94 0 0 1-.715-.298ZM47.01 100.28a.964.964 0 0 1-.066.388l-7.465 17.228c-.224.494-.577.739-1.062.739-.2 0-.38-.065-.546-.192a1.212 1.212 0 0 1-.38-.547l-7.566-17.191a.901.901 0 0 1-.066-.388c0-.424.189-.727.566-.914a.863.863 0 0 1 .4-.107c.377 0 .654.2.83.6l6.804 15.644 6.704-15.676c.177-.4.466-.6.862-.6a.9.9 0 0 1 .43.106c.378.188.566.494.566.915l-.012-.005Zm5.54 17.245c-1.415-.857-2.527-2.038-3.335-3.54-.807-1.503-1.211-3.169-1.211-5.002 0-1.834.404-3.537 1.211-5.039.808-1.503 1.92-2.683 3.335-3.541 1.415-.857 2.996-1.286 4.746-1.286 1.75 0 3.296.429 4.712 1.286 1.415.858 2.526 2.038 3.334 3.541.808 1.502 1.212 3.181 1.212 5.039 0 1.858-.404 3.499-1.212 5.002-.808 1.502-1.92 2.683-3.334 3.54-1.416.858-2.989 1.286-4.712 1.286-1.723 0-3.33-.428-4.746-1.286Zm8.461-1.707c1.108-.682 1.973-1.621 2.604-2.817.63-1.197.946-2.536.946-4.018 0-1.483-.315-2.818-.946-4.018-.63-1.197-1.5-2.144-2.604-2.838-1.107-.695-2.346-1.038-3.715-1.038-1.37 0-2.611.348-3.715 1.038-1.108.694-1.981 1.637-2.623 2.838-.643 1.196-.962 2.535-.962 4.018 0 1.482.32 2.817.962 4.018.642 1.196 1.515 2.135 2.623 2.817 1.103.682 2.346 1.021 3.715 1.021 1.37 0 2.608-.339 3.715-1.021Zm24.919-15.644c0 .094-.046.258-.134.494l-11.15 25.648c-.2.421-.454.633-.762.633a1.33 1.33 0 0 1-.465-.106c-.42-.188-.631-.458-.631-.809 0-.094.046-.257.135-.494l3.319-7.611a1.608 1.608 0 0 1-.135-.245l-7.265-16.909a1.311 1.311 0 0 1-.131-.564c0-.351.188-.62.565-.808a1.12 1.12 0 0 1 .531-.14c.33 0 .585.2.762.6l6.734 15.644 6.77-15.606c.2-.42.453-.633.761-.633.154 0 .312.037.465.106.42.188.631.457.631.808v-.008Zm14.667.229c1.416.858 2.527 2.038 3.335 3.541.807 1.502 1.211 3.181 1.211 5.039v8.562c0 .307-.088.56-.265.756-.177.2-.419.298-.731.298a.938.938 0 0 1-.715-.298 1.057 1.057 0 0 1-.281-.756v-2.748a7.898 7.898 0 0 1-3.004 2.94c-1.273.719-2.692 1.074-4.265 1.074-1.746 0-3.33-.428-4.746-1.286-1.415-.857-2.527-2.038-3.335-3.54-.807-1.503-1.211-3.169-1.211-5.002 0-1.834.404-3.537 1.211-5.039.808-1.503 1.92-2.683 3.335-3.541 1.415-.857 2.996-1.286 4.746-1.286 1.75 0 3.296.429 4.711 1.286h.004Zm-.996 15.415c1.108-.682 1.973-1.621 2.604-2.817.631-1.197.946-2.536.946-4.018 0-1.483-.315-2.818-.946-4.018-.631-1.197-1.5-2.144-2.604-2.838-1.108-.695-2.346-1.038-3.715-1.038-1.37 0-2.612.348-3.715 1.038-1.108.694-1.981 1.637-2.624 2.838-.642 1.196-.961 2.535-.961 4.018 0 1.482.32 2.817.962 4.018.642 1.196 1.515 2.135 2.623 2.817 1.107.682 2.346 1.021 3.715 1.021 1.369 0 2.611-.339 3.715-1.021Zm22.479-15.681c1.273.707 2.265 1.732 2.985 3.083.719 1.352 1.077 2.965 1.077 4.843v9.478c0 .306-.097.559-.281.755a.946.946 0 0 1-.712.298.93.93 0 0 1-.711-.298 1.056 1.056 0 0 1-.281-.755v-9.478c0-2.229-.592-3.932-1.777-5.108-1.185-1.176-2.727-1.76-4.627-1.76-1.173 0-2.238.241-3.204.723-.961.482-1.719 1.151-2.273 2.009a5.115 5.115 0 0 0-.831 2.838v10.78c0 .306-.088.559-.265.755-.177.2-.419.298-.731.298a.938.938 0 0 1-.715-.298 1.056 1.056 0 0 1-.281-.755v-17.158c0-.327.092-.588.281-.776a.97.97 0 0 1 .715-.282c.308 0 .554.094.731.282.177.188.265.445.265.776v1.833a7.977 7.977 0 0 1 2.754-2.307c1.085-.551 2.266-.829 3.55-.829 1.616 0 3.058.351 4.331 1.058v-.005Zm17.99 16.611c.189.2.281.466.281.792 0 .307-.096.56-.281.756-.184.196-.438.298-.746.298h-.762c-1.215 0-2.3-.294-3.25-.882a6.084 6.084 0 0 1-2.223-2.413c-.53-1.021-.796-2.177-.796-3.471v-9.898h-2.588a.846.846 0 0 1-.646-.266c-.166-.175-.25-.404-.25-.686 0-.282.084-.51.25-.686a.849.849 0 0 1 .646-.265h2.588v-5.741c0-.331.093-.593.281-.793a.936.936 0 0 1 .712-.298c.307 0 .557.102.746.298.188.2.28.466.28.793v5.741h4.381c.266 0 .481.09.646.265.166.176.25.404.25.686 0 .282-.084.511-.25.686a.846.846 0 0 1-.646.266h-4.381v9.898c0 1.364.397 2.47 1.197 3.328.796.857 1.827 1.286 3.084 1.286h.731c.312 0 .558.102.746.298v.008Z" fill="#fff"/></svg>