<svg width="181" height="48" viewBox="0 0 181 48" fill="none" xmlns="http://www.w3.org/2000/svg">
<path d="M45.161 5.82772L5.81603 45.173C5.26474 45.7243 4.54116 46 3.81758 46C3.09401 46 2.37043 45.7243 1.81913 45.173C0.716539 44.0704 0.716539 42.2787 1.81913 41.1761L41.1641 1.82695C42.2667 0.724349 44.0584 0.724349 45.161 1.82695C46.2636 2.92956 46.2636 4.72129 45.161 5.82389V5.82772Z" fill="#3CBDFF"/>
<path d="M30.949 1.82695C29.8464 0.724349 28.0547 0.724349 26.9521 1.82695L16.7952 11.9839V3.82542C16.7952 2.26723 15.528 1 13.966 1C12.404 1 11.1406 2.26723 11.1406 3.82542V25.6325L30.949 5.82772C32.0516 4.72511 32.0516 2.93338 30.949 1.83078V1.82695Z" fill="#00FFA7"/>
<path d="M0.995938 35.82L6.66599 30.1501L6.65068 22.1715V3.82542C6.65068 2.26723 5.38344 1 3.82522 1C3.82522 1 3.82522 1 3.8214 1C3.8214 1 3.8214 1 3.81757 1C2.25553 1 0.988281 2.26723 0.988281 3.82542V27.0031C0.988281 27.0605 0.99211 27.1179 0.995938 27.1715V35.8162V35.82Z" fill="#FFD119"/>
<path d="M41.1635 15.827L15.8191 41.1715C14.7165 42.2741 14.7165 44.0658 15.8191 45.1684C16.3704 45.7197 17.094 45.9954 17.8176 45.9954C18.5412 45.9954 19.2647 45.7197 19.816 45.1684L45.1604 19.8239C46.263 18.7213 46.263 16.9296 45.1604 15.827C44.0578 14.7243 42.2661 14.7243 41.1635 15.827Z" fill="#3A7CED"/>
<path d="M41.1642 29.6941L29.6824 41.1758C28.5798 42.2784 28.5798 44.0701 29.6824 45.1727C30.2337 45.724 30.9573 45.9997 31.6809 45.9997C32.4045 45.9997 33.1281 45.724 33.6794 45.1727L45.1612 33.6911C46.2638 32.5885 46.2638 30.7967 45.1612 29.6941C44.0586 28.5915 42.2668 28.5915 41.1642 29.6941Z" fill="#861FAC"/>
<path d="M64.419 9.80119C64.1306 9.48269 63.9883 9.09068 63.9883 8.6211C63.9883 8.10659 64.1421 7.70642 64.4537 7.42467C64.7614 7.14292 65.1267 7 65.5498 7C65.9729 7 66.3306 7.14292 66.6267 7.42467C66.9267 7.70642 67.0729 8.10659 67.0729 8.6211C67.0729 9.09068 66.9229 9.48269 66.6267 9.80119C66.3267 10.1197 65.9575 10.2749 65.5152 10.2749C65.0729 10.2749 64.7075 10.1156 64.419 9.80119ZM64.8344 33.301C64.646 33.1009 64.5537 32.8477 64.5537 32.5456V15.3872C64.5537 15.0606 64.646 14.7992 64.8344 14.6114C65.0229 14.4236 65.2614 14.3296 65.5498 14.3296C65.8575 14.3296 66.1037 14.4236 66.2806 14.6114C66.4575 14.7992 66.546 15.0565 66.546 15.3872V32.5456C66.546 32.8518 66.4575 33.105 66.2806 33.301C66.1037 33.5011 65.8614 33.5991 65.5498 33.5991C65.2614 33.5991 65.0229 33.5011 64.8344 33.301Z" fill="white"/>
<path d="M87.3492 15.2824C87.3492 15.4457 87.3261 15.5764 87.2838 15.6703L79.8185 32.898C79.5954 33.3921 79.2415 33.6371 78.7569 33.6371C78.5569 33.6371 78.3761 33.5718 78.2108 33.4452C78.0454 33.3145 77.9185 33.1349 77.83 32.898L70.2646 15.7071C70.2184 15.6131 70.1992 15.4825 70.1992 15.3191C70.1992 14.8945 70.3877 14.5923 70.7646 14.4045C70.8992 14.335 71.03 14.2983 71.1646 14.2983C71.5415 14.2983 71.8184 14.4984 71.9954 14.8985L78.7992 30.5419L85.5031 14.8659C85.68 14.4657 85.9684 14.2656 86.3646 14.2656C86.5184 14.2656 86.6646 14.3024 86.7954 14.3718C87.1723 14.5596 87.3608 14.8659 87.3608 15.2865L87.3492 15.2824Z" fill="white"/>
<path d="M92.8898 32.525C91.4744 31.6675 90.3629 30.4874 89.5553 28.9847C88.7476 27.4821 88.3438 25.816 88.3438 23.9826C88.3438 22.1492 88.7476 20.4464 89.5553 18.9437C90.3629 17.441 91.4744 16.261 92.8898 15.4034C94.3052 14.5459 95.8859 14.1172 97.6359 14.1172C99.3858 14.1172 100.932 14.5459 102.347 15.4034C103.763 16.261 104.874 17.441 105.682 18.9437C106.49 20.4464 106.893 22.1247 106.893 23.9826C106.893 25.8405 106.49 27.4821 105.682 28.9847C104.874 30.4874 103.763 31.6675 102.347 32.525C100.932 33.3825 99.3589 33.8113 97.6359 33.8113C95.9128 33.8113 94.3052 33.3825 92.8898 32.525ZM101.351 30.8182C102.459 30.1362 103.324 29.1971 103.955 28.0006C104.586 26.8042 104.901 25.4649 104.901 23.9826C104.901 22.5003 104.586 21.1651 103.955 19.9646C103.324 18.7681 102.455 17.8208 101.351 17.1266C100.243 16.4325 99.0051 16.0895 97.6359 16.0895C96.2667 16.0895 95.0244 16.4365 93.9206 17.1266C92.8129 17.8208 91.9398 18.7641 91.2975 19.9646C90.6552 21.161 90.336 22.5003 90.336 23.9826C90.336 25.4649 90.6552 26.8001 91.2975 28.0006C91.9398 29.1971 92.8129 30.1362 93.9206 30.8182C95.0244 31.5001 96.2667 31.839 97.6359 31.839C99.0051 31.839 100.243 31.5001 101.351 30.8182Z" fill="white"/>
<path d="M126.274 15.1762C126.274 15.2701 126.228 15.4335 126.139 15.6703L114.989 41.3179C114.789 41.7385 114.535 41.9509 114.228 41.9509C114.097 41.9509 113.939 41.9141 113.762 41.8447C113.343 41.6569 113.132 41.3874 113.132 41.0362C113.132 40.9423 113.178 40.7789 113.266 40.5421L116.585 32.9307C116.562 32.9062 116.52 32.8245 116.451 32.6857L109.185 15.7765C109.097 15.5886 109.055 15.4008 109.055 15.213C109.055 14.8618 109.243 14.5923 109.62 14.4045C109.797 14.3105 109.974 14.2656 110.151 14.2656C110.482 14.2656 110.735 14.4657 110.912 14.8659L117.647 30.5093L124.416 14.9026C124.616 14.482 124.87 14.2697 125.178 14.2697C125.332 14.2697 125.489 14.3065 125.643 14.3759C126.062 14.5637 126.274 14.8332 126.274 15.1844V15.1762Z" fill="white"/>
<path d="M140.937 15.4034C142.352 16.261 143.464 17.441 144.272 18.9437C145.079 20.4464 145.483 22.1247 145.483 23.9826V32.5454C145.483 32.8517 145.395 33.1049 145.218 33.3009C145.041 33.5009 144.799 33.5989 144.487 33.5989C144.199 33.5989 143.96 33.5009 143.772 33.3009C143.583 33.1008 143.491 32.8476 143.491 32.5454V29.7973C142.76 31.0427 141.76 32.0228 140.487 32.7374C139.214 33.456 137.795 33.8113 136.222 33.8113C134.476 33.8113 132.891 33.3825 131.476 32.525C130.06 31.6675 128.949 30.4874 128.141 28.9847C127.334 27.4821 126.93 25.816 126.93 23.9826C126.93 22.1492 127.334 20.4464 128.141 18.9437C128.949 17.441 130.06 16.261 131.476 15.4034C132.891 14.5459 134.472 14.1172 136.222 14.1172C137.972 14.1172 139.518 14.5459 140.933 15.4034H140.937ZM139.941 30.8182C141.049 30.1362 141.914 29.1971 142.545 28.0006C143.175 26.8042 143.491 25.4649 143.491 23.9826C143.491 22.5003 143.175 21.1651 142.545 19.9646C141.914 18.7681 141.045 17.8208 139.941 17.1266C138.833 16.4325 137.595 16.0895 136.226 16.0895C134.856 16.0895 133.614 16.4365 132.51 17.1266C131.403 17.8208 130.53 18.7641 129.887 19.9646C129.245 21.161 128.926 22.5003 128.926 23.9826C128.926 25.4649 129.245 26.8001 129.887 28.0006C130.53 29.1971 131.403 30.1362 132.51 30.8182C133.618 31.5001 134.856 31.839 136.226 31.839C137.595 31.839 138.837 31.5001 139.941 30.8182Z" fill="white"/>
<path d="M162.42 15.1394C163.693 15.8459 164.685 16.8708 165.405 18.2224C166.124 19.574 166.481 21.1869 166.481 23.0653V32.5428C166.481 32.849 166.385 33.1022 166.201 33.2982C166.016 33.4942 165.774 33.5963 165.489 33.5963C165.205 33.5963 164.962 33.4983 164.778 33.2982C164.589 33.0981 164.497 32.8449 164.497 32.5428V23.0653C164.497 20.8357 163.905 19.133 162.72 17.957C161.535 16.781 159.993 16.197 158.093 16.197C156.92 16.197 155.855 16.438 154.889 16.9198C153.928 17.4016 153.17 18.0713 152.616 18.9288C152.062 19.7863 151.785 20.7296 151.785 21.7668V32.5468C151.785 32.8531 151.697 33.1063 151.52 33.3023C151.343 33.5024 151.101 33.6004 150.789 33.6004C150.501 33.6004 150.262 33.5024 150.074 33.3023C149.885 33.1022 149.793 32.849 149.793 32.5468V15.3885C149.793 15.0619 149.885 14.8005 150.074 14.6127C150.262 14.4249 150.501 14.3309 150.789 14.3309C151.097 14.3309 151.343 14.4249 151.52 14.6127C151.697 14.8005 151.785 15.0578 151.785 15.3885V17.222C152.535 16.2379 153.455 15.4661 154.539 14.9149C155.624 14.3636 156.805 14.0859 158.089 14.0859C159.705 14.0859 161.147 14.4371 162.42 15.1435V15.1394Z" fill="white"/>
<path d="M180.41 31.7482C180.598 31.9483 180.691 32.2137 180.691 32.5404C180.691 32.8466 180.595 33.0998 180.41 33.2958C180.225 33.4918 179.972 33.5939 179.664 33.5939H178.902C177.687 33.5939 176.602 33.2999 175.652 32.7119C174.702 32.1239 173.96 31.3194 173.429 30.2986C172.898 29.2777 172.633 28.1222 172.633 26.8277V16.9296H170.045C169.779 16.9296 169.564 16.8398 169.398 16.6642C169.233 16.4886 169.148 16.26 169.148 15.9782C169.148 15.6965 169.233 15.4678 169.398 15.2922C169.564 15.1166 169.779 15.0268 170.045 15.0268H172.633V9.28557C172.633 8.95482 172.725 8.69348 172.914 8.4934C173.102 8.29331 173.341 8.19531 173.625 8.19531C173.933 8.19531 174.183 8.2974 174.372 8.4934C174.56 8.69348 174.652 8.9589 174.652 9.28557V15.0268H179.033C179.298 15.0268 179.514 15.1166 179.679 15.2922C179.845 15.4678 179.929 15.6965 179.929 15.9782C179.929 16.26 179.845 16.4886 179.679 16.6642C179.514 16.8398 179.298 16.9296 179.033 16.9296H174.652V26.8277C174.652 28.1916 175.048 29.2982 175.848 30.1557C176.645 31.0132 177.675 31.4419 178.933 31.4419H179.664C179.975 31.4419 180.222 31.544 180.41 31.74V31.7482Z" fill="white"/>
</svg>
