<svg width="213" height="73" viewBox="0 0 213 73" fill="none" xmlns="http://www.w3.org/2000/svg">
<path d="M70.674 8.22435L7.72206 71.1769C6.83999 72.0589 5.68226 72.5 4.52454 72.5C3.36682 72.5 2.20909 72.0589 1.32702 71.1769C-0.437131 69.4127 -0.437131 66.5459 1.32702 64.7818L64.279 1.82312C66.0432 0.0589587 68.9099 0.0589587 70.674 1.82312C72.4382 3.58729 72.4382 6.45406 70.674 8.21822V8.22435Z" fill="#3CBDFF"/>
<path d="M47.9395 1.82312C46.1754 0.0589588 43.3086 0.0589588 41.5445 1.82312L25.2935 18.0743V5.02067C25.2935 2.52756 23.2659 0.5 20.7667 0.5C18.2675 0.5 16.2461 2.52756 16.2461 5.02067V39.9119L47.9395 8.22435C49.7037 6.46018 49.7037 3.59341 47.9395 1.82925V1.82312Z" fill="#00FFA7"/>
<path d="M0.0122513 56.2121L9.08434 47.1401L9.05984 34.3744V5.02067C9.05984 2.52756 7.03225 0.5 4.53911 0.5C4.53911 0.5 4.53911 0.5 4.53298 0.5C4.53298 0.5 4.53298 0.5 4.52686 0.5C2.02759 0.5 0 2.52756 0 5.02067V42.1049C0 42.1968 0.00612565 42.2887 0.0122513 42.3744V56.206V56.2121Z" fill="#FFD119"/>
<path d="M64.2842 24.2294L23.7333 64.7807C21.9691 66.5448 21.9691 69.4116 23.7333 71.1758C24.6153 72.0578 25.7731 72.4989 26.9308 72.4989C28.0885 72.4989 29.2462 72.0578 30.1283 71.1758L70.6793 30.6245C72.4434 28.8603 72.4434 25.9935 70.6793 24.2294C68.9151 22.4652 66.0484 22.4652 64.2842 24.2294Z" fill="#3A7CED"/>
<path d="M64.2838 46.411L45.913 64.7816C44.1488 66.5458 44.1488 69.4125 45.913 71.1767C46.7951 72.0588 47.9528 72.4998 49.1106 72.4998C50.2683 72.4998 51.4261 72.0588 52.3082 71.1767L70.679 52.8061C72.4432 51.0419 72.4432 48.1752 70.679 46.411C68.9148 44.6468 66.048 44.6468 64.2838 46.411Z" fill="#861FAC"/>
<path d="M96.4308 21.8266C96.1423 21.5081 96 21.1161 96 20.6465C96 20.132 96.1538 19.7318 96.4654 19.4501C96.7731 19.1683 97.1385 19.0254 97.5615 19.0254C97.9846 19.0254 98.3423 19.1683 98.6385 19.4501C98.9385 19.7318 99.0846 20.132 99.0846 20.6465C99.0846 21.1161 98.9346 21.5081 98.6385 21.8266C98.3385 22.1451 97.9692 22.3003 97.5269 22.3003C97.0846 22.3003 96.7192 22.141 96.4308 21.8266ZM96.8462 45.3264C96.6577 45.1263 96.5654 44.8731 96.5654 44.5709V27.4126C96.5654 27.086 96.6577 26.8246 96.8462 26.6368C97.0346 26.449 97.2731 26.355 97.5615 26.355C97.8692 26.355 98.1154 26.449 98.2923 26.6368C98.4692 26.8246 98.5577 27.0819 98.5577 27.4126V44.5709C98.5577 44.8772 98.4692 45.1304 98.2923 45.3264C98.1154 45.5265 97.8731 45.6245 97.5615 45.6245C97.2731 45.6245 97.0346 45.5265 96.8462 45.3264Z" fill="white"/>
<path d="M119.361 27.3058C119.361 27.4692 119.338 27.5998 119.296 27.6937L111.83 44.9215C111.607 45.4156 111.253 45.6606 110.769 45.6606C110.569 45.6606 110.388 45.5952 110.222 45.4686C110.057 45.338 109.93 45.1583 109.842 44.9215L102.276 27.7305C102.23 27.6366 102.211 27.5059 102.211 27.3426C102.211 26.9179 102.399 26.6157 102.776 26.4279C102.911 26.3585 103.042 26.3217 103.176 26.3217C103.553 26.3217 103.83 26.5218 104.007 26.922L110.811 42.5654L117.515 26.8893C117.692 26.4891 117.98 26.2891 118.376 26.2891C118.53 26.2891 118.676 26.3258 118.807 26.3952C119.184 26.5831 119.372 26.8893 119.372 27.3099L119.361 27.3058Z" fill="white"/>
<path d="M124.902 44.5504C123.486 43.6929 122.375 42.5128 121.567 41.0101C120.759 39.5074 120.355 37.8414 120.355 36.008C120.355 34.1746 120.759 32.4718 121.567 30.9691C122.375 29.4664 123.486 28.2863 124.902 27.4288C126.317 26.5713 127.898 26.1426 129.648 26.1426C131.398 26.1426 132.944 26.5713 134.359 27.4288C135.774 28.2863 136.886 29.4664 137.694 30.9691C138.501 32.4718 138.905 34.1501 138.905 36.008C138.905 37.8659 138.501 39.5074 137.694 41.0101C136.886 42.5128 135.774 43.6929 134.359 44.5504C132.944 45.4079 131.371 45.8367 129.648 45.8367C127.925 45.8367 126.317 45.4079 124.902 44.5504ZM133.363 42.8436C134.471 42.1616 135.336 41.2225 135.967 40.026C136.597 38.8296 136.913 37.4903 136.913 36.008C136.913 34.5257 136.597 33.1905 135.967 31.99C135.336 30.7935 134.467 29.8462 133.363 29.152C132.255 28.4578 131.017 28.1148 129.648 28.1148C128.278 28.1148 127.036 28.4619 125.932 29.152C124.825 29.8462 123.952 30.7895 123.309 31.99C122.667 33.1864 122.348 34.5257 122.348 36.008C122.348 37.4903 122.667 38.8255 123.309 40.026C123.952 41.2225 124.825 42.1616 125.932 42.8436C127.036 43.5255 128.278 43.8644 129.648 43.8644C131.017 43.8644 132.255 43.5255 133.363 42.8436Z" fill="white"/>
<path d="M158.282 27.1997C158.282 27.2936 158.236 27.4569 158.147 27.6937L146.997 53.3414C146.797 53.762 146.543 53.9743 146.236 53.9743C146.105 53.9743 145.947 53.9375 145.77 53.8681C145.351 53.6803 145.139 53.4108 145.139 53.0596C145.139 52.9657 145.186 52.8024 145.274 52.5655L148.593 44.9541C148.57 44.9296 148.528 44.848 148.459 44.7091L141.193 27.7999C141.105 27.6121 141.062 27.4242 141.062 27.2364C141.062 26.8852 141.251 26.6157 141.628 26.4279C141.805 26.334 141.982 26.2891 142.159 26.2891C142.489 26.2891 142.743 26.4891 142.92 26.8893L149.655 42.5327L156.424 26.9261C156.624 26.5055 156.878 26.2931 157.186 26.2931C157.339 26.2931 157.497 26.3299 157.651 26.3993C158.07 26.5871 158.282 26.8567 158.282 27.2078V27.1997Z" fill="white"/>
<path d="M172.949 27.4288C174.364 28.2863 175.476 29.4664 176.283 30.9691C177.091 32.4718 177.495 34.1501 177.495 36.008V44.5708C177.495 44.8771 177.406 45.1302 177.229 45.3262C177.053 45.5263 176.81 45.6243 176.499 45.6243C176.21 45.6243 175.972 45.5263 175.783 45.3262C175.595 45.1262 175.503 44.873 175.503 44.5708V41.8227C174.772 43.0681 173.772 44.0482 172.499 44.7627C171.226 45.4814 169.807 45.8367 168.234 45.8367C166.487 45.8367 164.903 45.4079 163.487 44.5504C162.072 43.6929 160.961 42.5128 160.153 41.0101C159.345 39.5074 158.941 37.8414 158.941 36.008C158.941 34.1746 159.345 32.4718 160.153 30.9691C160.961 29.4664 162.072 28.2863 163.487 27.4288C164.903 26.5713 166.484 26.1426 168.234 26.1426C169.983 26.1426 171.53 26.5713 172.945 27.4288H172.949ZM171.953 42.8436C173.06 42.1616 173.926 41.2225 174.556 40.026C175.187 38.8296 175.503 37.4903 175.503 36.008C175.503 34.5257 175.187 33.1905 174.556 31.99C173.926 30.7935 173.056 29.8462 171.953 29.152C170.845 28.4578 169.607 28.1148 168.237 28.1148C166.868 28.1148 165.626 28.4619 164.522 29.152C163.414 29.8462 162.541 30.7895 161.899 31.99C161.257 33.1864 160.938 34.5257 160.938 36.008C160.938 37.4903 161.257 38.8255 161.899 40.026C162.541 41.2225 163.414 42.1616 164.522 42.8436C165.63 43.5255 166.868 43.8644 168.237 43.8644C169.607 43.8644 170.849 43.5255 171.953 42.8436Z" fill="white"/>
<path d="M194.432 27.1629C195.705 27.8693 196.697 28.8942 197.416 30.2458C198.135 31.5974 198.493 33.2104 198.493 35.0887V44.5662C198.493 44.8725 198.397 45.1256 198.212 45.3216C198.028 45.5176 197.785 45.6197 197.501 45.6197C197.216 45.6197 196.974 45.5217 196.789 45.3216C196.601 45.1215 196.509 44.8684 196.509 44.5662V35.0887C196.509 32.8592 195.916 31.1564 194.732 29.9804C193.547 28.8044 192.005 28.2205 190.105 28.2205C188.932 28.2205 187.866 28.4614 186.901 28.9432C185.939 29.4251 185.182 30.0947 184.628 30.9523C184.074 31.8098 183.797 32.753 183.797 33.7902V44.5703C183.797 44.8765 183.709 45.1297 183.532 45.3257C183.355 45.5258 183.112 45.6238 182.801 45.6238C182.512 45.6238 182.274 45.5258 182.085 45.3257C181.897 45.1256 181.805 44.8725 181.805 44.5703V27.412C181.805 27.0853 181.897 26.824 182.085 26.6361C182.274 26.4483 182.512 26.3544 182.801 26.3544C183.109 26.3544 183.355 26.4483 183.532 26.6361C183.709 26.824 183.797 27.0812 183.797 27.412V29.2454C184.547 28.2613 185.466 27.4896 186.551 26.9383C187.635 26.387 188.816 26.1094 190.101 26.1094C191.716 26.1094 193.159 26.4605 194.432 27.167V27.1629Z" fill="white"/>
<path d="M212.422 43.7736C212.61 43.9737 212.702 44.2391 212.702 44.5657C212.702 44.872 212.606 45.1252 212.422 45.3212C212.237 45.5172 211.983 45.6193 211.676 45.6193H210.914C209.699 45.6193 208.614 45.3253 207.664 44.7372C206.714 44.1492 205.972 43.3448 205.441 42.324C204.91 41.3031 204.645 40.1475 204.645 38.8531V28.955H202.056C201.791 28.955 201.576 28.8652 201.41 28.6896C201.245 28.514 201.16 28.2854 201.16 28.0036C201.16 27.7219 201.245 27.4932 201.41 27.3176C201.576 27.142 201.791 27.0522 202.056 27.0522H204.645V21.311C204.645 20.9802 204.737 20.7189 204.926 20.5188C205.114 20.3187 205.352 20.2207 205.637 20.2207C205.945 20.2207 206.195 20.3228 206.383 20.5188C206.572 20.7189 206.664 20.9843 206.664 21.311V27.0522H211.045C211.31 27.0522 211.526 27.142 211.691 27.3176C211.856 27.4932 211.941 27.7219 211.941 28.0036C211.941 28.2854 211.856 28.514 211.691 28.6896C211.526 28.8652 211.31 28.955 211.045 28.955H206.664V38.8531C206.664 40.217 207.06 41.3236 207.86 42.1811C208.656 43.0386 209.687 43.4673 210.945 43.4673H211.676C211.987 43.4673 212.233 43.5694 212.422 43.7654V43.7736Z" fill="white"/>
</svg>
