<svg xmlns="http://www.w3.org/2000/svg" width="23" height="22" viewBox="0 0 23 22" fill="none"><path d="M19.232 18.681h-3.257v-5.063c0-1.207-.022-2.761-1.695-2.761-1.696 0-1.956 1.315-1.956 2.673v5.15H9.067V8.27h3.127v1.422h.044a3.416 3.416 0 0 1 1.308-1.264 3.449 3.449 0 0 1 1.777-.418c3.302 0 3.91 2.155 3.91 4.96v5.711ZM5.392 6.846A1.9 1.9 0 0 1 4.34 6.53a1.863 1.863 0 0 1-.287-2.887 1.895 1.895 0 0 1 2.06-.407c.345.142.64.383.849.691a1.866 1.866 0 0 1-.848 2.776c-.23.094-.475.143-.724.143ZM7.02 18.681H3.76V8.27h3.26v10.412ZM20.856.091H2.122A1.61 1.61 0 0 0 .983.544 1.587 1.587 0 0 0 .5 1.664v18.67c.005.423.179.826.483 1.12.304.296.714.46 1.14.455h18.733a1.62 1.62 0 0 0 1.143-.453 1.59 1.59 0 0 0 .486-1.122V1.663a1.59 1.59 0 0 0-.487-1.121A1.614 1.614 0 0 0 20.856.09" fill="#fff"/></svg>