<svg width="22" height="22" viewBox="0 0 22 22" fill="none" xmlns="http://www.w3.org/2000/svg">
<path d="M18.7321 18.6812H15.4746V13.6181C15.4746 12.4108 15.4529 10.8566 13.7804 10.8566C12.0838 10.8566 11.8243 12.172 11.8243 13.5302V18.6808H8.56678V8.26918H11.6939V9.69204H11.7377C12.0507 9.16096 12.5029 8.72408 13.0462 8.42791C13.5896 8.13174 14.2037 7.98738 14.8232 8.0102C18.1247 8.0102 18.7335 10.1655 18.7335 12.9695L18.7321 18.6812ZM4.89128 6.84598C4.5174 6.84604 4.1519 6.73607 3.84099 6.52997C3.53009 6.32387 3.28776 6.0309 3.14463 5.6881C3.00149 5.3453 2.96398 4.96808 3.03685 4.60413C3.10972 4.24017 3.28971 3.90584 3.55403 3.64341C3.81835 3.38098 4.15515 3.20223 4.52183 3.12977C4.8885 3.05732 5.26859 3.0944 5.61403 3.23634C5.95947 3.37828 6.25475 3.6187 6.46252 3.9272C6.67029 4.23569 6.78122 4.59841 6.78129 4.96948C6.78133 5.21586 6.73248 5.45984 6.63752 5.68748C6.54256 5.91512 6.40337 6.12197 6.22787 6.29622C6.05236 6.47047 5.84398 6.60871 5.61465 6.70303C5.38532 6.79736 5.13952 6.84593 4.89128 6.84598ZM6.52001 18.6812H3.25915V8.26918H6.52001V18.6812ZM20.3561 0.0913303H1.62229C1.19708 0.0865679 0.787348 0.249544 0.483153 0.544446C0.178958 0.839349 0.00518939 1.24205 0 1.66406V20.3344C0.00501178 20.7566 0.178679 21.1596 0.482863 21.4548C0.787047 21.75 1.19687 21.9133 1.62229 21.9088H20.3561C20.7824 21.9141 21.1933 21.7513 21.4987 21.4561C21.8041 21.1609 21.9789 20.7574 21.9848 20.3344V1.66271C21.9787 1.23986 21.8038 0.836707 21.4984 0.541812C21.193 0.246917 20.7821 0.0844059 20.3561 0.0899827" fill="white"/>
</svg>
