<svg width="46" height="45" viewBox="0 0 46 45" fill="none" xmlns="http://www.w3.org/2000/svg">
<g id="Icon">
<path id="Vector" d="M45.161 4.82772L5.81603 44.173C5.26474 44.7243 4.54116 45 3.81758 45C3.09401 45 2.37043 44.7243 1.81913 44.173C0.716539 43.0704 0.716539 41.2787 1.81913 40.1761L41.1641 0.826952C42.2667 -0.275651 44.0584 -0.275651 45.161 0.826952C46.2636 1.92956 46.2636 3.72129 45.161 4.82389V4.82772Z" fill="#3CBDFF"/>
<path id="Vector_2" d="M30.949 0.826952C29.8464 -0.275651 28.0547 -0.275651 26.9521 0.826952L16.7952 10.9839V2.82542C16.7952 1.26723 15.528 0 13.966 0C12.404 0 11.1406 1.26723 11.1406 2.82542V24.6325L30.949 4.82772C32.0516 3.72511 32.0516 1.93338 30.949 0.830781V0.826952Z" fill="#00FFA7"/>
<path id="Vector_3" d="M0.995938 34.82L6.66599 29.1501L6.65068 21.1715V2.82542C6.65068 1.26723 5.38344 0 3.82522 0C3.82522 0 3.82522 0 3.8214 0C3.8214 0 3.8214 0 3.81757 0C2.25553 0 0.988281 1.26723 0.988281 2.82542V26.0031C0.988281 26.0605 0.99211 26.1179 0.995938 26.1715V34.8162V34.82Z" fill="#FFD119"/>
<path id="Vector_4" d="M41.1635 14.8309L15.8191 40.1754C14.7165 41.278 14.7165 43.0697 15.8191 44.1724C16.3704 44.7237 17.094 44.9993 17.8176 44.9993C18.5412 44.9993 19.2647 44.7237 19.816 44.1724L45.1604 18.8278C46.263 17.7252 46.263 15.9335 45.1604 14.8309C44.0578 13.7283 42.2661 13.7283 41.1635 14.8309Z" fill="#3A7CED"/>
<path id="Vector_5" d="M41.1642 28.6941L29.6824 40.1758C28.5798 41.2784 28.5798 43.0701 29.6824 44.1727C30.2337 44.724 30.9573 44.9997 31.6809 44.9997C32.4045 44.9997 33.1281 44.724 33.6794 44.1727L45.1612 32.6911C46.2638 31.5885 46.2638 29.7967 45.1612 28.6941C44.0586 27.5915 42.2668 27.5915 41.1642 28.6941Z" fill="#861FAC"/>
</g>
</svg>
