<svg width="33" height="32" viewBox="0 0 33 32" fill="none" xmlns="http://www.w3.org/2000/svg">
<path d="M26.7143 8H6.14286C5.83975 8 5.54906 8.12041 5.33474 8.33474C5.12041 8.54906 5 8.83975 5 9.14286V22.8571C5 23.1602 5.12041 23.4509 5.33474 23.6653C5.54906 23.8796 5.83975 24 6.14286 24H26.7143C27.0174 24 27.3081 23.8796 27.5224 23.6653C27.7367 23.4509 27.8571 23.1602 27.8571 22.8571V9.14286C27.8571 8.83975 27.7367 8.54906 27.5224 8.33474C27.3081 8.12041 27.0174 8 26.7143 8ZM24.6571 10.2857L16.4286 15.7714L8.2 10.2857H24.6571ZM7.28571 21.7143V12.4229L15.8 18.1371C15.9866 18.26 16.2051 18.3255 16.4286 18.3255C16.652 18.3255 16.8705 18.26 17.0571 18.1371L25.5714 12.4229V21.7143H7.28571Z" fill="white"/>
</svg>
