<svg width="64" height="267" viewBox="0 0 64 267" fill="none" xmlns="http://www.w3.org/2000/svg">
<path d="M41.7961 151.1C49.8651 143.502 55.502 136.81 58.5524 131.212C61.6221 125.577 63.179 120.232 63.179 115.32C63.179 111.16 61.8816 107.012 59.3198 102.997C56.7581 98.9798 53.2881 95.8573 49.0093 93.7198C44.9652 91.7023 40.2778 90.6273 35.0743 90.5198V0.749999C35.0743 0.334999 34.7044 0 34.2461 0C33.7879 0 33.418 0.334999 33.418 0.749999V91.0248C33.3904 91.0998 33.3738 91.1773 33.3738 91.2598C33.3738 91.6748 33.7437 92.0098 34.2019 92.0098C34.213 92.0098 34.2268 92.0098 34.2378 92.0098C34.2406 92.0098 34.2434 92.0098 34.2461 92.0098H34.2516C39.5049 92.0173 44.2005 93.0323 48.2088 95.0348C52.2198 97.0373 55.4744 99.9698 57.8844 103.747C60.2971 107.532 61.52 111.425 61.52 115.32C61.52 120 60.021 125.122 57.0645 130.55C54.0887 136.01 48.5483 142.575 40.5953 150.065L29.2109 160.932H62.2542V173.725H46.9445C46.4862 173.725 46.1163 174.06 46.1163 174.475C46.1163 174.89 46.4862 175.225 46.9445 175.225H63.9106V159.432H33.0674L41.7961 151.1Z" fill="url(#paint0_linear_4340_38296)"/>
<path d="M34.2465 173.723H1.82151V167.385L29.3051 142.003C36.0298 135.838 40.5791 130.795 42.8206 127.015C45.0898 123.188 46.2409 119.663 46.2409 116.535C46.2409 113.215 44.9986 110.425 42.5501 108.248C40.1043 106.073 36.9269 104.97 33.1036 104.97C29.2803 104.97 25.9373 106.298 23.348 108.918C20.9298 111.363 19.5633 114.655 19.2762 118.71H4.30597C4.88016 110.558 7.84219 104.04 13.123 99.3302C16.1762 96.6052 19.7676 94.6177 23.7924 93.4227C24.2258 93.2927 24.4632 92.8702 24.3224 92.4777C24.1789 92.0852 23.7124 91.8702 23.279 91.9977C19.0084 93.2652 15.2017 95.3727 11.9636 98.2627C6.21072 103.398 3.06373 110.518 2.60825 119.428L2.56962 120.213H20.8718L20.8994 119.488C21.054 115.458 22.2934 112.238 24.5874 109.92C26.8814 107.6 29.6695 106.473 33.1091 106.473C36.5487 106.473 39.2402 107.405 41.3934 109.32C43.5439 111.233 44.5873 113.595 44.5873 116.538C44.5873 119.48 43.5025 122.703 41.3658 126.308C39.1988 129.963 34.7461 134.888 28.1292 140.953L0.167969 166.775V175.225H33.4211V265.84C33.4211 266.255 33.791 266.59 34.2492 266.59C34.7075 266.59 35.0774 266.255 35.0774 265.84V174.475C35.0774 174.06 34.7075 173.725 34.2492 173.725L34.2465 173.723Z" fill="url(#paint1_linear_4340_38296)"/>
<defs>
<linearGradient id="paint0_linear_4340_38296" x1="29.2109" y1="0" x2="65.1631" y2="0.742183" gradientUnits="userSpaceOnUse">
<stop offset="0.00621719" stop-color="#B9C1EC"/>
<stop offset="1" stop-color="#A3B1FF"/>
</linearGradient>
<linearGradient id="paint1_linear_4340_38296" x1="0.167969" y1="91.9609" x2="47.8882" y2="93.2734" gradientUnits="userSpaceOnUse">
<stop offset="0.00621719" stop-color="#B9C1EC"/>
<stop offset="1" stop-color="#A3B1FF"/>
</linearGradient>
</defs>
</svg>
