<svg width="65" height="267" viewBox="0 0 65 267" fill="none" xmlns="http://www.w3.org/2000/svg">
<path d="M33.2633 175.776C33.0287 175.776 32.8189 175.866 32.6671 176.006C32.5152 175.863 32.3054 175.773 32.0708 175.773C23.6402 175.773 16.6782 173.438 11.378 168.836C6.25176 164.383 3.32561 158.276 2.67413 150.676H17.9674C18.7789 154.711 20.4546 157.791 22.9556 159.836C25.6002 161.996 28.9735 163.091 32.9845 163.091C36.9955 163.091 40.6974 161.848 43.4634 159.401C46.2377 156.948 47.6428 153.908 47.6428 150.366C47.6428 146.463 45.7546 143.128 42.0279 140.453C38.5111 137.928 33.4759 136.561 27.0467 136.388V124.568C30.9004 124.251 33.752 123.676 35.7423 122.818C37.8789 121.901 39.5683 120.616 40.7664 118.998C41.9727 117.371 42.5828 115.616 42.5828 113.781C42.5828 111.368 41.6332 109.338 39.7616 107.743C37.9038 106.161 35.458 105.361 32.4932 105.361C29.8845 105.361 27.4828 106.088 25.3572 107.523C23.4 108.846 21.9949 110.546 21.1751 112.588H6.33457C7.25934 107.171 9.534 102.738 13.1033 99.4032C16.2752 96.4432 19.9908 94.3483 24.1454 93.1783C24.5815 93.0558 24.8272 92.6358 24.6892 92.2383C24.5539 91.8433 24.0874 91.6208 23.6512 91.7458C19.2289 92.9933 15.2814 95.2183 11.9135 98.3582C7.90528 102.101 5.4291 107.108 4.55678 113.241L4.43533 114.086H22.3786L22.5609 113.558C23.2344 111.588 24.5098 109.963 26.3455 108.723C28.1812 107.486 30.2489 106.858 32.4932 106.858C35.0604 106.858 37.0673 107.506 38.627 108.833C40.1729 110.151 40.9265 111.768 40.9265 113.778C40.9265 115.311 40.4103 116.786 39.3917 118.161C38.362 119.548 36.8962 120.658 35.0328 121.461C33.1225 122.283 30.1357 122.843 26.1522 123.128L25.3904 123.183V137.861L26.2075 137.871C32.6505 137.943 37.6277 139.206 40.9955 141.626C44.3523 144.036 45.9838 146.893 45.9838 150.363C45.9838 153.528 44.7802 156.133 42.304 158.323C39.8554 160.488 36.7195 161.586 32.9818 161.586C29.244 161.586 26.3924 160.621 24.0626 158.716C21.7216 156.801 20.1785 153.803 19.4829 149.803L19.3724 149.171H0.910156L0.95986 149.963C1.49816 158.323 4.61753 165.036 10.2324 169.913C15.85 174.793 23.1958 177.268 32.0708 177.268C32.2033 177.268 32.3247 177.238 32.4352 177.188V265.84C32.4352 266.255 32.8051 266.59 33.2633 266.59C33.7216 266.59 34.0915 266.255 34.0915 265.84V176.518C34.0915 176.103 33.7216 175.768 33.2633 175.768V175.776Z" fill="url(#paint0_linear_4340_38299)"/>
<path d="M48.3677 129.633C51.7963 127.858 54.5043 125.623 56.4367 122.975C58.6893 119.883 59.8349 116.423 59.8349 112.685C59.8349 106.685 57.2345 101.433 52.1082 97.0754C47.2331 92.933 41.1766 90.7405 34.0931 90.5455V0.765624C34.0931 0.350624 33.7232 0.015625 33.265 0.015625C32.8067 0.015625 32.4368 0.350624 32.4368 0.765624V90.773C32.3043 90.9055 32.2188 91.0805 32.2188 91.2755C32.2188 91.6905 32.5887 92.0255 33.0469 92.0255C40.1469 92.0255 46.1786 94.0929 50.9736 98.1679C55.7521 102.233 58.1758 107.115 58.1758 112.685C58.1758 116.123 57.1241 119.308 55.0537 122.15C52.9723 125.003 49.8943 127.348 45.9053 129.12L44.0061 129.963L46.0351 130.51C51.2801 131.928 55.4319 134.43 58.3773 137.943C61.3173 141.453 62.8107 145.655 62.8107 150.43C62.8107 157.465 59.9039 163.51 54.1758 168.398C50.8798 171.21 47.0096 173.243 42.6756 174.438C42.2394 174.558 41.991 174.978 42.1262 175.373C42.2339 175.695 42.5624 175.905 42.9185 175.905C42.9985 175.905 43.0786 175.895 43.1614 175.873C47.7411 174.608 51.8294 172.46 55.3132 169.49C61.389 164.308 64.4698 157.895 64.4698 150.43C64.4698 145.32 62.8659 140.815 59.6996 137.038C56.8977 133.693 53.0937 131.21 48.3733 129.635L48.3677 129.633Z" fill="url(#paint1_linear_4340_38299)"/>
<defs>
<linearGradient id="paint0_linear_4340_38299" x1="0.910156" y1="91.7109" x2="49.3128" y2="93.0593" gradientUnits="userSpaceOnUse">
<stop offset="0.00621719" stop-color="#B9C1EC"/>
<stop offset="1" stop-color="#A3B1FF"/>
</linearGradient>
<linearGradient id="paint1_linear_4340_38299" x1="32.2187" y1="0.015625" x2="65.636" y2="0.654373" gradientUnits="userSpaceOnUse">
<stop offset="0.00621719" stop-color="#B9C1EC"/>
<stop offset="1" stop-color="#A3B1FF"/>
</linearGradient>
</defs>
</svg>
