<svg width="39" height="267" viewBox="0 0 39 267" fill="none" xmlns="http://www.w3.org/2000/svg">
<path d="M21.2501 0.757811C21.2501 0.342812 20.8801 0.0078125 20.4219 0.0078125C19.9637 0.0078125 19.5938 0.342812 19.5938 0.757811V93.3076C19.5938 93.3601 19.5993 93.4101 19.6103 93.4601C19.6876 93.8026 20.0216 94.0601 20.4219 94.0601C20.4274 94.0601 20.4329 94.0601 20.4412 94.0601H36.5102V174.48C36.5102 174.895 36.8801 175.23 37.3383 175.23C37.7966 175.23 38.1665 174.895 38.1665 174.48V92.5601H21.2501V0.757811Z" fill="url(#paint0_linear_4340_38293)"/>
<path d="M21.2299 107.069H3.42182L12.5149 93.6989C12.7551 93.3464 12.6336 92.8839 12.2444 92.6664C11.8552 92.4489 11.3445 92.5589 11.1043 92.9114L0.457031 108.569H19.5736V174.476C19.5736 174.534 19.5818 174.589 19.5956 174.641V265.841C19.5956 266.256 19.9656 266.591 20.4238 266.591C20.882 266.591 21.252 266.256 21.252 265.841V174.476C21.252 174.419 21.2437 174.364 21.2299 174.311V107.069Z" fill="url(#paint1_linear_4340_38293)"/>
<defs>
<linearGradient id="paint0_linear_4340_38293" x1="19.5937" y1="0.0078125" x2="38.8427" y2="0.220504" gradientUnits="userSpaceOnUse">
<stop offset="0.00621719" stop-color="#B9C1EC"/>
<stop offset="1" stop-color="#A3B1FF"/>
</linearGradient>
<linearGradient id="paint1_linear_4340_38293" x1="0.457031" y1="92.5547" x2="22.0084" y2="92.8231" gradientUnits="userSpaceOnUse">
<stop offset="0.00621719" stop-color="#B9C1EC"/>
<stop offset="1" stop-color="#A3B1FF"/>
</linearGradient>
</defs>
</svg>
