<svg width="66" height="267" viewBox="0 0 66 267" fill="none" xmlns="http://www.w3.org/2000/svg">
<path d="M41.2387 157.062H2.12229V143.75L33.8792 101.015C34.1359 100.672 34.0338 100.205 33.6556 99.975C33.2774 99.745 32.7612 99.835 32.5072 100.177L0.46875 143.292V158.562H39.5852V174.477C39.5852 174.54 39.5962 174.6 39.6128 174.657V265.842C39.6128 266.257 39.9827 266.592 40.441 266.592C40.8992 266.592 41.2691 266.257 41.2691 265.842V174.477C41.2691 174.415 41.258 174.355 41.2415 174.297V157.062H41.2387Z" fill="url(#paint0_linear_4340_38302)"/>
<path d="M57.9305 90.5176H41.2626V0.757811C41.2626 0.342812 40.8927 0.0078125 40.4345 0.0078125C39.9762 0.0078125 39.6063 0.342812 39.6063 0.757811V90.6676C39.402 90.8051 39.2695 91.0201 39.2695 91.2676C39.2695 91.6826 39.6394 92.0176 40.0977 92.0176H40.4262C40.4262 92.0176 40.4317 92.0176 40.4345 92.0176C40.4372 92.0176 40.44 92.0176 40.4427 92.0176H56.2742V144.275H64.2549V157.068H56.2742V174.482C56.2742 174.897 56.6441 175.232 57.1024 175.232C57.5606 175.232 57.9305 174.897 57.9305 174.482V158.568H65.9112V142.775H57.9305V90.5176Z" fill="url(#paint1_linear_4340_38302)"/>
<path d="M41.1337 146.395V116.008L18.2656 146.395H41.1337ZM39.4774 144.895H21.3988L39.4774 120.873V144.895Z" fill="url(#paint2_linear_4340_38302)"/>
<defs>
<linearGradient id="paint0_linear_4340_38302" x1="0.46875" y1="99.8477" x2="42.7324" y2="100.926" gradientUnits="userSpaceOnUse">
<stop offset="0.00621719" stop-color="#B9C1EC"/>
<stop offset="1" stop-color="#A3B1FF"/>
</linearGradient>
<linearGradient id="paint1_linear_4340_38302" x1="39.2695" y1="0.0078125" x2="66.8777" y2="0.445396" gradientUnits="userSpaceOnUse">
<stop offset="0.00621719" stop-color="#B9C1EC"/>
<stop offset="1" stop-color="#A3B1FF"/>
</linearGradient>
<linearGradient id="paint2_linear_4340_38302" x1="18.2656" y1="116.008" x2="41.8243" y2="117.856" gradientUnits="userSpaceOnUse">
<stop offset="0.00621719" stop-color="#B9C1EC"/>
<stop offset="1" stop-color="#A3B1FF"/>
</linearGradient>
</defs>
</svg>
