<svg width="22" height="22" viewBox="0 0 22 22" fill="none" xmlns="http://www.w3.org/2000/svg"><g clip-path="url(#a)"><path d="M19.25 22H2.75A2.751 2.751 0 0 1 0 19.25V2.75A2.751 2.751 0 0 1 2.75 0h16.5A2.751 2.751 0 0 1 22 2.75v16.5A2.751 2.751 0 0 1 19.25 22Z" fill="#fff"/><path d="M8.446 16.588c5.187 0 8.025-4.3 8.025-8.024 0-.121 0-.242-.006-.363a5.746 5.746 0 0 0 1.408-1.463 5.716 5.716 0 0 1-1.622.445 2.838 2.838 0 0 0 1.243-1.562 5.61 5.61 0 0 1-1.793.682 2.815 2.815 0 0 0-2.057-.89 2.824 2.824 0 0 0-2.75 3.464A8.009 8.009 0 0 1 5.08 5.93a2.828 2.828 0 0 0 .875 3.768 2.853 2.853 0 0 1-1.276-.352v.038c0 1.364.973 2.508 2.26 2.767a2.75 2.75 0 0 1-.742.099c-.182 0-.358-.017-.528-.05a2.82 2.82 0 0 0 2.634 1.958A5.657 5.657 0 0 1 4.13 15.33a8.022 8.022 0 0 0 4.317 1.26Z" fill="#262626"/></g><defs><clipPath id="a"><path fill="#fff" d="M0 0h22v22H0z"/></clipPath></defs></svg>