<svg width="33" height="32" viewBox="0 0 33 32" fill="none" xmlns="http://www.w3.org/2000/svg">
<path d="M22.4265 27.0405C21.5209 27.0408 20.631 26.8045 19.8448 26.355L19.7339 26.2926C14.6226 23.3687 10.3463 19.183 7.3137 14.1354L6.73558 13.1719C6.14347 12.1869 5.89811 11.032 6.03861 9.89126C6.1791 8.75056 6.69736 7.68971 7.5108 6.87777L8.66263 5.72594C9.63056 4.75802 11.2048 4.75802 12.1718 5.72594L14.7095 8.26366C15.0914 8.64739 15.3379 9.14512 15.4116 9.68148C15.4852 10.2178 15.3821 10.7636 15.1178 11.2361L14.164 12.9299C14.1439 12.9656 14.1361 13.0068 14.1416 13.0473C14.1472 13.0878 14.1659 13.1254 14.1948 13.1543L19.8448 18.8044C19.8742 18.8331 19.9121 18.8516 19.9529 18.857C19.9937 18.8624 20.0351 18.8544 20.0709 18.8343L21.7622 17.8813L21.7631 17.8804C22.2356 17.6164 22.7813 17.5134 23.3176 17.5871C23.8539 17.6608 24.3516 17.9071 24.7355 18.2887L27.2741 20.8282C28.242 21.7961 28.242 23.3703 27.2741 24.3374L26.0712 25.5394C25.5921 26.0168 25.0237 26.3952 24.3983 26.6527C23.7729 26.9103 23.1029 27.0421 22.4265 27.0405ZM10.4172 6.75986C10.2324 6.75986 10.0476 6.83026 9.90686 6.97105L8.75503 8.122C8.21965 8.65641 7.87854 9.35464 7.78605 10.1054C7.69356 10.8562 7.855 11.6163 8.24467 12.2647L8.82278 13.2282C11.6994 18.0166 15.7557 21.9874 20.6042 24.7615L20.7151 24.824C22.0578 25.5921 23.7473 25.3748 24.8261 24.2943L26.029 23.0923C26.096 23.0253 26.1492 22.9457 26.1855 22.8581C26.2218 22.7706 26.2404 22.6767 26.2404 22.5819C26.2404 22.4871 26.2218 22.3933 26.1855 22.3057C26.1492 22.2181 26.096 22.1386 26.029 22.0715L23.4904 19.5321C23.3786 19.421 23.2337 19.3494 23.0776 19.3281C22.9215 19.3068 22.7628 19.337 22.6254 19.4142L20.9342 20.3671C20.5633 20.5747 20.1349 20.6559 19.7139 20.5982C19.2928 20.5406 18.902 20.3473 18.6006 20.0477L12.9505 14.3977C12.6506 14.0966 12.4571 13.7059 12.3995 13.2849C12.3418 12.8639 12.4231 12.4355 12.6311 12.065L13.585 10.372C13.6616 10.2346 13.6915 10.0759 13.67 9.92007C13.6486 9.7642 13.5771 9.61952 13.4662 9.50789L10.9276 6.97105C10.8606 6.90398 10.781 6.85079 10.6935 6.81455C10.6059 6.77831 10.512 6.75973 10.4172 6.75986Z" fill="white"/>
</svg>
