<svg width="30" height="30" viewBox="0 0 30 30" fill="none" xmlns="http://www.w3.org/2000/svg"><rect width="30" height="30" rx="15" fill="#20045B"/><path d="M17.945 6.75a7.514 7.514 0 0 1 5.305 5.305m-6.082-2.407a4.509 4.509 0 0 1 3.183 3.183m-8.681 1.871a7.907 7.907 0 0 0 3.66 3.645.743.743 0 0 0 .735-.056l2.347-1.565a.75.75 0 0 1 .712-.065l4.39 1.882a.748.748 0 0 1 .45.778 4.5 4.5 0 0 1-4.464 3.93A12.75 12.75 0 0 1 6.75 10.5a4.5 4.5 0 0 1 3.93-4.464.747.747 0 0 1 .778.45l1.884 4.394a.751.751 0 0 1-.062.706l-1.56 2.383a.744.744 0 0 0-.05.732v0Z" stroke="#fff" strokeLinecap="round" strokeLinejoin="round"/></svg>