<svg width="16" height="16" viewBox="0 0 16 16" fill="none" xmlns="http://www.w3.org/2000/svg">
<path d="M5.77977 7.80028C6.29842 8.86062 7.15792 9.71621 8.2206 10.23C8.29835 10.2669 8.38436 10.2828 8.47015 10.2763C8.55595 10.2699 8.63857 10.2411 8.7099 10.193L10.2746 9.14961C10.3438 9.10347 10.4235 9.07531 10.5063 9.0677C10.5891 9.0601 10.6725 9.07327 10.749 9.10604L13.6763 10.3606C13.7757 10.4028 13.8588 10.4763 13.9128 10.5698C13.9669 10.6633 13.9892 10.7719 13.9762 10.8791C13.8837 11.6031 13.5304 12.2686 12.9826 12.7509C12.4347 13.2332 11.7299 13.4993 11 13.4993C8.74566 13.4993 6.58365 12.6038 4.98959 11.0097C3.39553 9.41568 2.5 7.25367 2.5 4.99933C2.50004 4.26944 2.76612 3.56459 3.24843 3.01675C3.73073 2.46892 4.39618 2.11567 5.12019 2.02314C5.22745 2.01016 5.33602 2.03239 5.42955 2.08648C5.52307 2.14057 5.59649 2.22359 5.63873 2.32303L6.89439 5.2529C6.92687 5.32868 6.9401 5.41132 6.93291 5.49346C6.92572 5.57559 6.89833 5.65468 6.85318 5.72366L5.81341 7.3124C5.76608 7.38387 5.7381 7.46639 5.73221 7.5519C5.72631 7.63742 5.7427 7.723 5.77977 7.80028V7.80028Z" stroke="#969AFB" strokeWidth="1.5" strokeLinecap="round" strokeLinejoin="round"/>
</svg>
