<svg width="22" height="22" viewBox="0 0 22 22" fill="none" xmlns="http://www.w3.org/2000/svg">
<g id="skype">
<ellipse id="ellipse" cx="6.875" cy="6.5" rx="6.375" ry="6" fill="#184AA9"/>
<circle id="ellipse_2" cx="15.5" cy="15.5" r="6" fill="#2173F0"/>
<circle id="ellipse_3" cx="11" cy="11" r="9.75" fill="url(#paint0_linear_3823_28995)"/>
<path id="s" d="M11.0516 5.75C12.6366 5.75 14.75 6.5 14.2217 7.5C13.4995 8.8668 12.1083 7.5 11.0516 7.5C9.99488 7.5 9.46653 8 9.46653 8.5C9.46653 9 9.73071 9.5 11.0516 10C12.3724 10.5 14.75 11.25 14.75 13.25C14.75 15.25 12.9008 16.25 10.5232 16.25C8.39339 16.25 6.8248 15.25 7.35315 14.25C7.96075 13.1 9.46653 14.5 10.5232 14.5C11.5799 14.5 12.6366 14.25 12.6366 13.25C12.6366 12.25 11.0516 12 9.99486 11.5C8.67398 10.875 7.35313 10.25 7.35313 8.5C7.35313 6.75 9.46653 5.75 11.0516 5.75Z" fill="white"/>
</g>
<defs>
<linearGradient id="paint0_linear_3823_28995" x1="3.41667" y1="5.04167" x2="18.0417" y2="17.2292" gradientUnits="userSpaceOnUse">
<stop stop-color="#297AC0"/>
<stop offset="1" stop-color="#48B0F9"/>
</linearGradient>
</defs>
</svg>
