<svg width="33" height="32" viewBox="0 0 33 32" fill="none" xmlns="http://www.w3.org/2000/svg">
<g clip-path="url(#clip0_2109_6454)">
<path fill-rule="evenodd" clip-rule="evenodd" d="M7.06669 15.005C6.39458 13.9867 6 12.7706 6 11.4587C6 7.89129 8.89128 5 12.4587 5C13.7706 5 14.9867 5.39459 16.005 6.0667C16.3319 6.03138 16.6629 6.00917 17 6.00917C22.5182 6.00917 26.9908 10.4818 26.9908 16C26.9908 16.3371 26.9686 16.6681 26.9333 16.9951C27.6054 18.0133 28 19.2294 28 20.5413C28 24.1087 25.1087 27 21.5413 27C20.2294 27 19.0133 26.6054 17.995 25.9333C17.6681 25.9686 17.3371 25.9908 17 25.9908C11.4818 25.9908 7.00917 21.5182 7.00917 16C7.00917 15.6629 7.03137 15.3319 7.06669 15.005ZM25.0896 17.1101C25.0583 17.3452 25.1198 17.5834 25.2611 17.7741C25.8373 18.5472 26.1835 19.5029 26.1835 20.5413C26.1835 23.1056 24.1056 25.1835 21.5413 25.1835C20.5028 25.1835 19.5472 24.8374 18.7741 24.2611C18.5834 24.1198 18.3452 24.0583 18.1101 24.0896C17.7458 24.139 17.3774 24.1743 17 24.1743C12.485 24.1743 8.82568 20.5151 8.82568 16C8.82568 15.6226 8.861 15.2542 8.91045 14.8899C8.94173 14.6548 8.88017 14.4166 8.73889 14.2259C8.16265 13.4529 7.8165 12.4972 7.8165 11.4587C7.8165 8.89441 9.8944 6.81652 12.4587 6.81652C13.4972 6.81652 14.4528 7.16266 15.2259 7.7389C15.4166 7.88019 15.6548 7.94175 15.8899 7.91046C16.2542 7.86101 16.6226 7.82569 17 7.82569C21.515 7.82569 25.1743 11.485 25.1743 16C25.1743 16.3774 25.139 16.7458 25.0896 17.1101ZM21.0105 13.7707C21.0105 13.0784 20.6906 12.4225 20.0982 11.9038C19.3938 11.2851 18.2645 10.8562 16.9818 10.8562C14.6728 10.8562 12.9522 12.0652 12.9522 13.7707C12.9522 15.4762 14.6728 16.6852 16.9818 16.6852H17.0182C17.6802 16.6852 18.2837 16.8225 18.7176 17.1151C19.0264 17.323 19.2313 17.6197 19.2313 18.0062C19.2313 18.3928 19.0264 18.6895 18.7176 18.8973C18.2837 19.19 17.6802 19.3273 17.0182 19.3273C16.3652 19.3273 15.7688 19.1496 15.3399 18.8429C15.0321 18.6229 14.8061 18.3413 14.8061 18.0062C14.8061 17.5047 14.3994 17.098 13.8978 17.098C13.3962 17.098 12.9895 17.5047 12.9895 18.0062C12.9895 19.6441 14.7253 21.1438 17.0182 21.1438C19.312 21.1438 21.0478 19.8884 21.0478 18.0062C21.0478 16.1241 19.312 14.8687 17.0182 14.8687H16.9818C16.3057 14.8687 15.6891 14.7436 15.246 14.4741C14.9695 14.3076 14.7687 14.0816 14.7687 13.7707C14.7687 13.4599 14.9695 13.2349 15.246 13.0673C15.6891 12.7989 16.3057 12.6728 16.9818 12.6728C17.6499 12.6728 18.2584 12.8352 18.6964 13.1168C18.9719 13.2934 19.1939 13.5013 19.1939 13.7707C19.1939 14.2723 19.6006 14.679 20.1022 14.679C20.6038 14.679 21.0105 14.2723 21.0105 13.7707Z" fill="white"/>
</g>
<defs>
<clipPath id="clip0_2109_6454">
<rect width="32" height="32" fill="white" transform="translate(0.703125)"/>
</clipPath>
</defs>
</svg>
