<svg width="16" height="16" viewBox="0 0 16 16" fill="none" xmlns="http://www.w3.org/2000/svg"><g clip-path="url(#a)" stroke="#969AFB" strokeLinecap="round" strokeLinejoin="round"><path d="M8 2.002a6 6 0 0 1 5.735 7.767 3 3 0 0 1-3.968 3.968 6 6 0 0 1-7.502-7.502 3 3 0 0 1 3.968-3.97A5.992 5.992 0 0 1 8 2.003Z"/><path d="M5.334 9.668c.333 1.333 1.572 1.667 2.667 1.667 1.936 0 2.666-.792 2.666-1.667 0-1.002-1.284-1.667-2.666-1.667s-2.667-.666-2.667-1.666c0-.876.73-1.667 2.667-1.667 1.094 0 2.333.333 2.666 1.667"/></g><defs><clipPath id="a"><path fill="#fff" d="M0 0h16v16H0z"/></clipPath></defs></svg>