<svg width="23" height="22" viewBox="0 0 23 22" fill="none" xmlns="http://www.w3.org/2000/svg">
<g id="Twitter  svg" clip-path="url(#clip0_5225_35682)">
<g id="Dark_Blue">
<path id="Vector" d="M19.75 22H3.25C1.732 22 0.5 20.768 0.5 19.25V2.75C0.5 1.232 1.732 0 3.25 0H19.75C21.268 0 22.5 1.232 22.5 2.75V19.25C22.5 20.768 21.268 22 19.75 22Z" fill="white"/>
</g>
<g id="Logo__x2014__FIXED">
<path id="Vector_2" d="M8.94641 16.5881C14.1329 16.5881 16.9709 12.2871 16.9709 8.56361C16.9709 8.44261 16.9709 8.32161 16.9654 8.20061C17.5154 7.80461 17.9939 7.30411 18.3734 6.73761C17.8674 6.96311 17.3229 7.11161 16.7509 7.18311C17.3339 6.83661 17.7794 6.28111 17.9939 5.62111C17.4494 5.94561 16.8444 6.17661 16.2009 6.30311C15.6839 5.75311 14.9524 5.41211 14.1439 5.41211C12.5874 5.41211 11.3224 6.67711 11.3224 8.23361C11.3224 8.45361 11.3499 8.66811 11.3939 8.87711C9.05091 8.76161 6.97191 7.63411 5.58041 5.92911C5.33841 6.34711 5.20091 6.83111 5.20091 7.34811C5.20091 8.32711 5.70141 9.19061 6.45491 9.69661C5.99291 9.68011 5.55841 9.55361 5.17891 9.34461C5.17891 9.35561 5.17891 9.36661 5.17891 9.38311C5.17891 10.7471 6.15241 11.8911 7.43941 12.1496C7.20291 12.2156 6.95541 12.2486 6.69691 12.2486C6.51541 12.2486 6.33941 12.2321 6.16891 12.1991C6.52641 13.3211 7.57141 14.1351 8.80341 14.1571C7.83541 14.9161 6.61991 15.3671 5.29991 15.3671C5.07441 15.3671 4.84891 15.3561 4.62891 15.3286C5.87191 16.1206 7.35691 16.5881 8.94641 16.5881Z" fill="#262626"/>
</g>
</g>
<defs>
<clipPath id="clip0_5225_35682">
<rect width="22" height="22" fill="white" transform="translate(0.5)"/>
</clipPath>
</defs>
</svg>
