<svg width="694" height="360" viewBox="0 0 694 360" fill="none" xmlns="http://www.w3.org/2000/svg">
<path fill-rule="evenodd" clip-rule="evenodd" d="M316.89 24.6506C394.028 18.3901 469.111 -10.0235 541.923 4.22091C618.664 19.2341 688.795 57.0345 693.552 98.338C698.296 139.538 590.242 161.048 564.495 200.237C538.967 239.093 598.367 287.5 548.117 319.703C496.671 352.673 400.219 360.514 316.89 358.917C235.427 357.354 157.909 338.925 98.141 311.074C42.7713 285.273 5.34161 249.33 0.469597 211.469C-3.8511 177.893 48.7423 151.353 73.5665 120.103C96.1232 91.707 91.1668 55.7275 139.134 36.9108C187.455 17.9551 256.366 29.5626 316.89 24.6506Z" fill="#CA65DB"/>
</svg>
