<svg width="22" height="22" viewBox="0 0 22 22" fill="none" xmlns="http://www.w3.org/2000/svg">
<g clip-path="url(#clip0_2109_6491)">
<path d="M19.25 22H2.75C1.232 22 0 20.768 0 19.25V2.75C0 1.232 1.232 0 2.75 0H19.25C20.768 0 22 1.232 22 2.75V19.25C22 20.768 20.768 22 19.25 22Z" fill="white"/>
<path d="M8.44641 16.5881C13.6329 16.5881 16.4709 12.2871 16.4709 8.56361C16.4709 8.44261 16.4709 8.32161 16.4654 8.20061C17.0154 7.80461 17.4939 7.30411 17.8734 6.73761C17.3674 6.96311 16.8229 7.11161 16.2509 7.18311C16.8339 6.83661 17.2794 6.28111 17.4939 5.62111C16.9494 5.94561 16.3444 6.17661 15.7009 6.30311C15.1839 5.75311 14.4524 5.41211 13.6439 5.41211C12.0874 5.41211 10.8224 6.67711 10.8224 8.23361C10.8224 8.45361 10.8499 8.66811 10.8939 8.87711C8.55091 8.76161 6.47191 7.63411 5.08041 5.92911C4.83841 6.34711 4.70091 6.83111 4.70091 7.34811C4.70091 8.32711 5.20141 9.19061 5.95491 9.69661C5.49291 9.68011 5.05841 9.55361 4.67891 9.34461C4.67891 9.35561 4.67891 9.36661 4.67891 9.38311C4.67891 10.7471 5.65241 11.8911 6.93941 12.1496C6.70291 12.2156 6.45541 12.2486 6.19691 12.2486C6.01541 12.2486 5.83941 12.2321 5.66891 12.1991C6.02641 13.3211 7.07141 14.1351 8.30341 14.1571C7.33541 14.9161 6.11991 15.3671 4.79991 15.3671C4.57441 15.3671 4.34891 15.3561 4.12891 15.3286C5.37191 16.1206 6.85691 16.5881 8.44641 16.5881Z" fill="#262626"/>
</g>
<defs>
<clipPath id="clip0_2109_6491">
<rect width="22" height="22" fill="white"/>
</clipPath>
</defs>
</svg>

