<svg width="25" height="20" viewBox="0 0 25 20" fill="none" xmlns="http://www.w3.org/2000/svg">
<g clip-path="url(#clip0_2109_6498)">
<path d="M24.4828 3.12307C24.2068 1.89371 23.3937 0.925646 22.361 0.597097C20.4894 0 12.9844 0 12.9844 0C12.9844 0 5.47937 0 3.60772 0.597097C2.57514 0.925646 1.76186 1.89371 1.48588 3.12307C0.984375 5.35118 0.984375 10 0.984375 10C0.984375 10 0.984375 14.6488 1.48588 16.8771C1.76186 18.1063 2.57514 19.0743 3.60772 19.403C5.47937 20 12.9844 20 12.9844 20C12.9844 20 20.4894 20 22.361 19.403C23.3937 19.0743 24.2068 18.1063 24.4828 16.8771C24.9844 14.6488 24.9844 10 24.9844 10C24.9844 10 24.9844 5.35118 24.4828 3.12307Z" fill="white"/>
<path d="M10.5312 14.2207L16.804 10.0001L10.5312 5.77917V14.2207Z" fill="#262626"/>
</g>
<defs>
<clipPath id="clip0_2109_6498">
<rect width="24" height="20" fill="white" transform="translate(0.984375)"/>
</clipPath>
</defs>
</svg>
