<svg width="25" height="20" viewBox="0 0 25 20" fill="none" xmlns="http://www.w3.org/2000/svg">
<g id="YouTube svg" clip-path="url(#clip0_5225_35689)">
<g id="g10">
<g id="g12">
<path id="path14" d="M23.9828 3.12307C23.7068 1.89371 22.8937 0.925646 21.861 0.597097C19.9894 0 12.4844 0 12.4844 0C12.4844 0 4.97937 0 3.10772 0.597097C2.07514 0.925646 1.26186 1.89371 0.985884 3.12307C0.484375 5.35118 0.484375 10 0.484375 10C0.484375 10 0.484375 14.6488 0.985884 16.8771C1.26186 18.1063 2.07514 19.0743 3.10772 19.403C4.97937 20 12.4844 20 12.4844 20C12.4844 20 19.9894 20 21.861 19.403C22.8937 19.0743 23.7068 18.1063 23.9828 16.8771C24.4844 14.6488 24.4844 10 24.4844 10C24.4844 10 24.4844 5.35118 23.9828 3.12307Z" fill="white"/>
<path id="path16" d="M10.0312 14.2207L16.304 10.0001L10.0312 5.77917V14.2207Z" fill="#262626"/>
</g>
</g>
</g>
<defs>
<clipPath id="clip0_5225_35689">
<rect width="24" height="20" fill="white" transform="translate(0.484375)"/>
</clipPath>
</defs>
</svg>
